G75*
%MOIN*%
%OFA0B0*%
%FSLAX24Y24*%
%IPPOS*%
%LPD*%
%AMOC8*
5,1,8,0,0,1.08239X$1,22.5*
%
%ADD10C,0.0000*%
%ADD11OC8,0.0520*%
%ADD12OC8,0.0620*%
%ADD13C,0.0620*%
%ADD14C,0.0560*%
%ADD15C,0.0705*%
%ADD16C,0.0600*%
%ADD17R,0.0787X0.0472*%
%ADD18OC8,0.0594*%
%ADD19C,0.1890*%
%ADD20C,0.0400*%
%ADD21C,0.0320*%
%ADD22C,0.0160*%
%ADD23R,0.0356X0.0356*%
%ADD24C,0.0660*%
%ADD25C,0.0317*%
D10*
X002107Y000113D02*
X002107Y019609D01*
X021477Y019609D01*
X021477Y000113D01*
X002107Y000113D01*
X011502Y001343D02*
X011504Y001380D01*
X011510Y001417D01*
X011519Y001453D01*
X011533Y001487D01*
X011550Y001520D01*
X011570Y001552D01*
X011593Y001581D01*
X011619Y001607D01*
X011648Y001630D01*
X011679Y001650D01*
X011713Y001667D01*
X011747Y001681D01*
X011783Y001690D01*
X011820Y001696D01*
X011857Y001698D01*
X011894Y001696D01*
X011931Y001690D01*
X011967Y001681D01*
X012001Y001667D01*
X012034Y001650D01*
X012066Y001630D01*
X012095Y001607D01*
X012121Y001581D01*
X012144Y001552D01*
X012164Y001521D01*
X012181Y001487D01*
X012195Y001453D01*
X012204Y001417D01*
X012210Y001380D01*
X012212Y001343D01*
X012210Y001306D01*
X012204Y001269D01*
X012195Y001233D01*
X012181Y001199D01*
X012164Y001166D01*
X012144Y001134D01*
X012121Y001105D01*
X012095Y001079D01*
X012066Y001056D01*
X012035Y001036D01*
X012001Y001019D01*
X011967Y001005D01*
X011931Y000996D01*
X011894Y000990D01*
X011857Y000988D01*
X011820Y000990D01*
X011783Y000996D01*
X011747Y001005D01*
X011713Y001019D01*
X011680Y001036D01*
X011648Y001056D01*
X011619Y001079D01*
X011593Y001105D01*
X011570Y001134D01*
X011550Y001165D01*
X011533Y001199D01*
X011519Y001233D01*
X011510Y001269D01*
X011504Y001306D01*
X011502Y001343D01*
X011502Y004883D02*
X011504Y004920D01*
X011510Y004957D01*
X011519Y004993D01*
X011533Y005027D01*
X011550Y005060D01*
X011570Y005092D01*
X011593Y005121D01*
X011619Y005147D01*
X011648Y005170D01*
X011679Y005190D01*
X011713Y005207D01*
X011747Y005221D01*
X011783Y005230D01*
X011820Y005236D01*
X011857Y005238D01*
X011894Y005236D01*
X011931Y005230D01*
X011967Y005221D01*
X012001Y005207D01*
X012034Y005190D01*
X012066Y005170D01*
X012095Y005147D01*
X012121Y005121D01*
X012144Y005092D01*
X012164Y005061D01*
X012181Y005027D01*
X012195Y004993D01*
X012204Y004957D01*
X012210Y004920D01*
X012212Y004883D01*
X012210Y004846D01*
X012204Y004809D01*
X012195Y004773D01*
X012181Y004739D01*
X012164Y004706D01*
X012144Y004674D01*
X012121Y004645D01*
X012095Y004619D01*
X012066Y004596D01*
X012035Y004576D01*
X012001Y004559D01*
X011967Y004545D01*
X011931Y004536D01*
X011894Y004530D01*
X011857Y004528D01*
X011820Y004530D01*
X011783Y004536D01*
X011747Y004545D01*
X011713Y004559D01*
X011680Y004576D01*
X011648Y004596D01*
X011619Y004619D01*
X011593Y004645D01*
X011570Y004674D01*
X011550Y004705D01*
X011533Y004739D01*
X011519Y004773D01*
X011510Y004809D01*
X011504Y004846D01*
X011502Y004883D01*
D11*
X005357Y002113D03*
X004357Y002113D03*
X003357Y002113D03*
X003357Y001113D03*
X004357Y001113D03*
X005357Y001113D03*
D12*
X007357Y004113D03*
D13*
X007357Y003113D03*
D14*
X010577Y003113D02*
X011137Y003113D01*
X011137Y002113D02*
X010577Y002113D01*
D15*
X009750Y002133D02*
X009045Y002133D01*
X009045Y004093D02*
X009750Y004093D01*
X013965Y004093D02*
X014670Y004093D01*
X014670Y002133D02*
X013965Y002133D01*
X019505Y009113D02*
X020210Y009113D01*
X020210Y011113D02*
X019505Y011113D01*
X019505Y013113D02*
X020210Y013113D01*
X020210Y015113D02*
X019505Y015113D01*
X004210Y013613D02*
X003505Y013613D01*
X003505Y011613D02*
X004210Y011613D01*
X004210Y009613D02*
X003505Y009613D01*
X003505Y007613D02*
X004210Y007613D01*
D16*
X008357Y018563D02*
X008357Y019163D01*
X009357Y019163D02*
X009357Y018563D01*
X010357Y018563D02*
X010357Y019163D01*
X013357Y019163D02*
X013357Y018563D01*
X014357Y018563D02*
X014357Y019163D01*
X015357Y019163D02*
X015357Y018563D01*
X018357Y018563D02*
X018357Y019163D01*
X019357Y019163D02*
X019357Y018563D01*
X020357Y018563D02*
X020357Y019163D01*
X017657Y012613D02*
X017057Y012613D01*
X017057Y011613D02*
X017657Y011613D01*
X017657Y010613D02*
X017057Y010613D01*
X019557Y006863D02*
X020157Y006863D01*
X020157Y005863D02*
X019557Y005863D01*
X019557Y004863D02*
X020157Y004863D01*
X020157Y003863D02*
X019557Y003863D01*
X018407Y003863D02*
X017807Y003863D01*
X017807Y002863D02*
X018407Y002863D01*
X018407Y001863D02*
X017807Y001863D01*
X017807Y000863D02*
X018407Y000863D01*
D17*
X014560Y007122D03*
X014560Y007910D03*
X014560Y008697D03*
X014560Y009485D03*
X014560Y010272D03*
X014560Y011059D03*
X014560Y011847D03*
X014560Y012634D03*
X008655Y012634D03*
X008655Y011847D03*
X008655Y011059D03*
X008655Y010272D03*
X008655Y009485D03*
X008655Y008697D03*
X008655Y007910D03*
X008655Y007122D03*
D18*
X007107Y007613D03*
X007107Y008613D03*
X007107Y009613D03*
X007107Y010613D03*
X007107Y011613D03*
X007107Y012613D03*
X007107Y013613D03*
X007107Y006613D03*
X016107Y006613D03*
X016107Y007613D03*
X016107Y008613D03*
X016107Y009613D03*
X016107Y010613D03*
X016107Y011613D03*
X016107Y012613D03*
X016107Y013613D03*
D19*
X005515Y017652D03*
X004334Y015801D03*
X003192Y017652D03*
D20*
X003170Y016550D02*
X003170Y018863D01*
X007607Y016613D02*
X007607Y014613D01*
X007857Y014363D01*
X007107Y013613D02*
X006357Y012863D01*
X006357Y006113D01*
X008107Y004363D01*
X008107Y001613D01*
X007607Y001113D01*
X004357Y001113D01*
X008920Y005175D02*
X010420Y005175D01*
X011232Y004238D01*
X011920Y003488D01*
X011920Y002738D01*
X011357Y002175D01*
X010920Y002175D01*
X010857Y002113D01*
X009417Y002113D01*
X009397Y002133D01*
X011857Y005613D02*
X014357Y005613D01*
X015607Y004363D01*
X015607Y002863D01*
X016607Y001863D01*
X018107Y001863D01*
X018107Y002863D02*
X017107Y002863D01*
X016357Y003613D01*
X016357Y004613D01*
X014607Y006363D01*
X012607Y006363D01*
X009107Y009363D01*
X008777Y009363D01*
X008655Y009485D01*
X008479Y009485D01*
X007107Y009613D01*
X007107Y010613D02*
X008267Y010272D01*
X008655Y010272D01*
X008655Y011059D02*
X008304Y011059D01*
X007107Y011613D01*
X007107Y012613D02*
X008389Y011863D01*
X008655Y011847D01*
X008655Y012634D02*
X008336Y012634D01*
X007107Y013613D01*
X007607Y016613D02*
X008357Y017363D01*
X008357Y018863D01*
X010357Y018863D02*
X010357Y018050D01*
X015357Y018863D02*
X016045Y018863D01*
X019857Y015113D02*
X020357Y015113D01*
X021107Y014363D01*
X021107Y007363D01*
X020607Y006863D01*
X019857Y006863D01*
X018607Y005613D02*
X019357Y004863D01*
X019857Y004863D01*
X018607Y005613D02*
X018607Y010363D01*
X019357Y011113D01*
X019857Y011113D01*
X017357Y011613D02*
X017107Y011613D01*
X016107Y012613D01*
X014842Y011847D01*
X014560Y011847D01*
X014560Y012634D02*
X014879Y012634D01*
X016107Y013613D01*
X016107Y011613D02*
X014910Y011059D01*
X014560Y011059D01*
X014560Y010272D02*
X014948Y010272D01*
X016107Y010613D01*
X016107Y009613D02*
X014985Y009485D01*
X014560Y009485D01*
X014560Y008697D02*
X015023Y008697D01*
X016107Y008613D01*
X016107Y007613D02*
X015060Y007910D01*
X014560Y007910D01*
X014560Y007122D02*
X014847Y007122D01*
X016107Y006613D01*
X011857Y005613D02*
X009060Y007910D01*
X008655Y007910D01*
X008405Y007910D01*
X007107Y007613D01*
X007107Y008613D02*
X008442Y008697D01*
X008655Y008697D01*
X008655Y007122D02*
X008367Y007122D01*
X007107Y006613D01*
X003857Y009613D02*
X002857Y009613D01*
X002920Y013613D02*
X003857Y013613D01*
X020357Y018113D02*
X020357Y018863D01*
D21*
X018732Y018488D02*
X018732Y016363D01*
X017482Y016363D02*
X017107Y016363D01*
X016232Y015488D01*
X016232Y015238D01*
X015982Y016113D02*
X015982Y016613D01*
X015607Y016988D01*
X013982Y016988D01*
X013357Y017613D01*
X013357Y018863D01*
X018357Y018863D02*
X018732Y018488D01*
X013482Y012613D02*
X013482Y010613D01*
X013857Y010238D01*
X014526Y010238D01*
X014560Y010272D01*
X014560Y008697D02*
X014475Y008613D01*
X013232Y008613D01*
X012732Y009113D01*
X012732Y012363D01*
X005357Y002113D02*
X004357Y002113D01*
D22*
X004357Y002552D01*
X004175Y002552D01*
X003917Y002295D01*
X003917Y002113D01*
X004357Y002113D01*
X004357Y002113D01*
X004357Y002112D01*
X004357Y002112D01*
X004357Y001673D01*
X004175Y001673D01*
X003917Y001930D01*
X003917Y002112D01*
X004357Y002112D01*
X004357Y001672D01*
X004540Y001673D01*
X004797Y001930D01*
X004797Y002112D01*
X004357Y002112D01*
X004357Y002113D01*
X004357Y002552D01*
X004540Y002552D01*
X004797Y002295D01*
X004797Y002113D01*
X004357Y002113D01*
X004357Y002173D02*
X004357Y002173D01*
X004357Y002015D02*
X004357Y002015D01*
X004357Y001856D02*
X004357Y001856D01*
X004357Y001698D02*
X004357Y001698D01*
X004150Y001698D02*
X003649Y001698D01*
X003564Y001613D02*
X003857Y001905D01*
X003857Y002320D01*
X003564Y002612D01*
X003150Y002612D01*
X002857Y002320D01*
X002857Y001905D01*
X003150Y001613D01*
X003564Y001613D01*
X003540Y001552D02*
X003357Y001552D01*
X003175Y001552D01*
X002917Y001295D01*
X002917Y001113D01*
X003357Y001113D01*
X003357Y001552D01*
X003357Y001113D01*
X003357Y001113D01*
X003357Y001112D01*
X003357Y001112D01*
X003357Y000673D01*
X003175Y000673D01*
X002917Y000930D01*
X002917Y001112D01*
X003357Y001112D01*
X003357Y000672D01*
X003540Y000673D01*
X003797Y000930D01*
X003797Y001112D01*
X003357Y001112D01*
X003357Y001113D01*
X003797Y001113D01*
X003797Y001295D01*
X003540Y001552D01*
X003553Y001539D02*
X004077Y001539D01*
X004150Y001612D02*
X003857Y001320D01*
X003857Y000905D01*
X004150Y000613D01*
X004564Y000613D01*
X004624Y000673D01*
X005090Y000673D01*
X005150Y000613D01*
X005564Y000613D01*
X005624Y000673D01*
X007695Y000673D01*
X007857Y000739D01*
X008357Y001239D01*
X008480Y001363D01*
X008547Y001525D01*
X008547Y001792D01*
X008709Y001630D01*
X008927Y001540D01*
X009868Y001540D01*
X010085Y001630D01*
X010128Y001673D01*
X010282Y001673D01*
X010283Y001672D01*
X010474Y001593D01*
X011241Y001593D01*
X011333Y001631D01*
X011262Y001461D01*
X011262Y001224D01*
X011353Y001005D01*
X011520Y000838D01*
X011739Y000748D01*
X011976Y000748D01*
X012194Y000838D01*
X012362Y001005D01*
X012452Y001224D01*
X012452Y001461D01*
X012362Y001680D01*
X012194Y001847D01*
X011976Y001937D01*
X011742Y001937D01*
X012293Y002488D01*
X012360Y002650D01*
X012360Y003478D01*
X012363Y003556D01*
X012360Y003565D01*
X012360Y003575D01*
X012330Y003647D01*
X012303Y003720D01*
X012297Y003728D01*
X012293Y003737D01*
X012238Y003792D01*
X011783Y004288D01*
X011976Y004288D01*
X012194Y004378D01*
X012362Y004545D01*
X012452Y004764D01*
X012452Y005001D01*
X012381Y005173D01*
X014175Y005173D01*
X014663Y004685D01*
X013847Y004685D01*
X013629Y004595D01*
X013462Y004428D01*
X013372Y004210D01*
X013372Y003975D01*
X013462Y003757D01*
X013629Y003590D01*
X013847Y003500D01*
X014788Y003500D01*
X015005Y003590D01*
X015167Y003752D01*
X015167Y002775D01*
X015234Y002613D01*
X016234Y001613D01*
X016358Y001489D01*
X016520Y001423D01*
X017484Y001423D01*
X017501Y001405D01*
X017687Y001328D01*
X017623Y001307D01*
X017556Y001273D01*
X017495Y001229D01*
X017441Y001175D01*
X017397Y001114D01*
X017362Y001047D01*
X017339Y000975D01*
X017327Y000900D01*
X017327Y000883D01*
X018087Y000883D01*
X018087Y000842D01*
X017327Y000842D01*
X017327Y000825D01*
X017339Y000750D01*
X017362Y000678D01*
X017397Y000611D01*
X017441Y000550D01*
X017495Y000496D01*
X017556Y000452D01*
X017609Y000425D01*
X002357Y000425D01*
X002357Y016896D01*
X002441Y016812D01*
X002540Y016733D01*
X002647Y016666D01*
X002761Y016611D01*
X002880Y016569D01*
X003003Y016541D01*
X003112Y016529D01*
X003112Y017572D01*
X003272Y017572D01*
X003272Y017732D01*
X003112Y017732D01*
X003112Y018775D01*
X003003Y018763D01*
X002880Y018734D01*
X002761Y018693D01*
X002647Y018638D01*
X002540Y018571D01*
X002441Y018492D01*
X002357Y018408D01*
X002357Y019300D01*
X007830Y019300D01*
X007817Y019270D01*
X007817Y018455D01*
X007899Y018257D01*
X007917Y018239D01*
X007917Y017545D01*
X007358Y016986D01*
X007234Y016862D01*
X007167Y016700D01*
X007167Y014525D01*
X007234Y014363D01*
X007439Y014158D01*
X007439Y014137D01*
X007476Y014048D01*
X007543Y013981D01*
X007631Y013944D01*
X007717Y013944D01*
X007770Y013923D01*
X007945Y013923D01*
X007998Y013944D01*
X008083Y013944D01*
X008171Y013981D01*
X008218Y014027D01*
X008218Y013291D01*
X007644Y013747D01*
X007644Y013835D01*
X007330Y014149D01*
X006885Y014149D01*
X006570Y013835D01*
X006570Y013698D01*
X005984Y013112D01*
X005917Y012950D01*
X005917Y007096D01*
X005858Y007120D01*
X004658Y007120D01*
X004680Y007129D01*
X005430Y007879D01*
X005917Y007879D01*
X005917Y007721D02*
X005271Y007721D01*
X005113Y007562D02*
X005917Y007562D01*
X005917Y007404D02*
X004954Y007404D01*
X004796Y007245D02*
X005917Y007245D01*
X005795Y006800D02*
X002795Y006800D01*
X002795Y004175D01*
X005795Y004175D01*
X005795Y006800D01*
X005795Y006770D02*
X002795Y006770D01*
X002795Y006611D02*
X005795Y006611D01*
X005795Y006453D02*
X002795Y006453D01*
X002795Y006294D02*
X005795Y006294D01*
X005795Y006136D02*
X002795Y006136D01*
X002795Y005977D02*
X005795Y005977D01*
X005795Y005819D02*
X002795Y005819D01*
X002795Y005660D02*
X005795Y005660D01*
X005795Y005502D02*
X002795Y005502D01*
X002795Y005343D02*
X005795Y005343D01*
X005795Y005185D02*
X002795Y005185D01*
X002795Y005026D02*
X005795Y005026D01*
X005795Y004868D02*
X002795Y004868D01*
X002795Y004709D02*
X005795Y004709D01*
X005795Y004551D02*
X002795Y004551D01*
X002795Y004392D02*
X005795Y004392D01*
X005795Y004234D02*
X002795Y004234D01*
X002475Y004234D02*
X002357Y004234D01*
X002357Y004392D02*
X002475Y004392D01*
X002475Y004551D02*
X002357Y004551D01*
X002357Y004709D02*
X002475Y004709D01*
X002475Y004868D02*
X002357Y004868D01*
X002357Y005026D02*
X002475Y005026D01*
X002475Y005185D02*
X002357Y005185D01*
X002357Y005343D02*
X002475Y005343D01*
X002475Y005502D02*
X002357Y005502D01*
X002357Y005660D02*
X002475Y005660D01*
X002475Y005819D02*
X002357Y005819D01*
X002357Y005977D02*
X002475Y005977D01*
X002475Y006136D02*
X002357Y006136D01*
X002357Y006294D02*
X002475Y006294D01*
X002475Y006453D02*
X002357Y006453D01*
X002357Y006611D02*
X002475Y006611D01*
X002475Y006770D02*
X002357Y006770D01*
X002475Y006864D02*
X002524Y006981D01*
X002614Y007071D01*
X002731Y007120D01*
X003159Y007120D01*
X003002Y007277D01*
X002912Y007495D01*
X002912Y007730D01*
X003002Y007948D01*
X003169Y008115D01*
X003387Y008205D01*
X004144Y008205D01*
X004537Y008599D01*
X004537Y009192D01*
X004489Y009157D01*
X004414Y009119D01*
X004334Y009093D01*
X004252Y009080D01*
X003895Y009080D01*
X003895Y009575D01*
X003820Y009575D01*
X003820Y009080D01*
X003463Y009080D01*
X003380Y009093D01*
X003300Y009119D01*
X003226Y009157D01*
X003158Y009206D01*
X003099Y009266D01*
X003049Y009333D01*
X003011Y009408D01*
X002985Y009488D01*
X002972Y009571D01*
X002972Y009575D01*
X003820Y009575D01*
X003820Y009650D01*
X003820Y010145D01*
X003463Y010145D01*
X003380Y010132D01*
X003300Y010106D01*
X003226Y010068D01*
X003158Y010019D01*
X003099Y009959D01*
X003049Y009892D01*
X003011Y009817D01*
X002985Y009737D01*
X002972Y009654D01*
X002972Y009650D01*
X003820Y009650D01*
X003895Y009650D01*
X003895Y010145D01*
X004252Y010145D01*
X004334Y010132D01*
X004414Y010106D01*
X004489Y010068D01*
X004537Y010033D01*
X004537Y010626D01*
X004144Y011020D01*
X003387Y011020D01*
X003169Y011110D01*
X003002Y011277D01*
X002912Y011495D01*
X002912Y011730D01*
X003002Y011948D01*
X003169Y012115D01*
X003387Y012205D01*
X004144Y012205D01*
X004537Y012599D01*
X004537Y013192D01*
X004489Y013157D01*
X004414Y013119D01*
X004334Y013093D01*
X004252Y013080D01*
X003895Y013080D01*
X003895Y013575D01*
X003820Y013575D01*
X003820Y013080D01*
X003463Y013080D01*
X003380Y013093D01*
X003300Y013119D01*
X003226Y013157D01*
X003158Y013206D01*
X003099Y013266D01*
X003049Y013333D01*
X003011Y013408D01*
X002985Y013488D01*
X002972Y013571D01*
X002972Y013575D01*
X003820Y013575D01*
X003820Y013650D01*
X003820Y014145D01*
X003463Y014145D01*
X003380Y014132D01*
X003300Y014106D01*
X003226Y014068D01*
X003158Y014019D01*
X003099Y013959D01*
X003049Y013892D01*
X003011Y013817D01*
X002985Y013737D01*
X002972Y013654D01*
X002972Y013650D01*
X003820Y013650D01*
X003895Y013650D01*
X003895Y014145D01*
X004252Y014145D01*
X004334Y014132D01*
X004414Y014106D01*
X004489Y014068D01*
X004537Y014033D01*
X004537Y014476D01*
X004609Y014649D01*
X004490Y014617D01*
X004178Y014617D01*
X003876Y014697D01*
X003606Y014853D01*
X003386Y015074D01*
X003230Y015344D01*
X003149Y015645D01*
X003149Y015957D01*
X003230Y016259D01*
X003386Y016529D01*
X003403Y016546D01*
X003381Y016541D01*
X003272Y016529D01*
X003272Y017572D01*
X004315Y017572D01*
X004303Y017463D01*
X004275Y017340D01*
X004233Y017221D01*
X004178Y017107D01*
X004111Y017000D01*
X004079Y016960D01*
X004178Y016986D01*
X004490Y016986D01*
X004538Y016973D01*
X004411Y017195D01*
X004330Y017496D01*
X004330Y017808D01*
X004411Y018109D01*
X004567Y018379D01*
X004787Y018600D01*
X005057Y018756D01*
X005359Y018837D01*
X005671Y018837D01*
X005972Y018756D01*
X006242Y018600D01*
X006463Y018379D01*
X006619Y018109D01*
X006700Y017808D01*
X006700Y017496D01*
X006653Y017320D01*
X006841Y017132D01*
X006927Y016923D01*
X006927Y015499D01*
X006841Y015290D01*
X006680Y015129D01*
X005677Y014126D01*
X005677Y008249D01*
X005591Y008040D01*
X005430Y007879D01*
X005588Y008038D02*
X005917Y008038D01*
X005917Y008196D02*
X005655Y008196D01*
X005677Y008355D02*
X005917Y008355D01*
X005917Y008513D02*
X005677Y008513D01*
X005677Y008672D02*
X005917Y008672D01*
X005917Y008830D02*
X005677Y008830D01*
X005677Y008989D02*
X005917Y008989D01*
X005917Y009147D02*
X005677Y009147D01*
X005677Y009306D02*
X005917Y009306D01*
X005917Y009464D02*
X005677Y009464D01*
X005677Y009623D02*
X005917Y009623D01*
X005917Y009781D02*
X005677Y009781D01*
X005677Y009940D02*
X005917Y009940D01*
X005917Y010098D02*
X005677Y010098D01*
X005677Y010257D02*
X005917Y010257D01*
X005917Y010415D02*
X005677Y010415D01*
X005677Y010574D02*
X005917Y010574D01*
X005917Y010732D02*
X005677Y010732D01*
X005677Y010891D02*
X005917Y010891D01*
X005917Y011049D02*
X005677Y011049D01*
X005677Y011208D02*
X005917Y011208D01*
X005917Y011366D02*
X005677Y011366D01*
X005677Y011525D02*
X005917Y011525D01*
X005917Y011683D02*
X005677Y011683D01*
X005677Y011842D02*
X005917Y011842D01*
X005917Y012000D02*
X005677Y012000D01*
X005677Y012159D02*
X005917Y012159D01*
X005917Y012317D02*
X005677Y012317D01*
X005677Y012476D02*
X005917Y012476D01*
X005917Y012634D02*
X005677Y012634D01*
X005677Y012793D02*
X005917Y012793D01*
X005918Y012951D02*
X005677Y012951D01*
X005677Y013110D02*
X005983Y013110D01*
X006141Y013268D02*
X005677Y013268D01*
X005677Y013427D02*
X006299Y013427D01*
X006458Y013585D02*
X005677Y013585D01*
X005677Y013744D02*
X006570Y013744D01*
X006638Y013902D02*
X005677Y013902D01*
X005677Y014061D02*
X006796Y014061D01*
X007228Y014378D02*
X005928Y014378D01*
X006087Y014536D02*
X007167Y014536D01*
X007167Y014695D02*
X006245Y014695D01*
X006404Y014853D02*
X007167Y014853D01*
X007167Y015012D02*
X006562Y015012D01*
X006721Y015170D02*
X007167Y015170D01*
X007167Y015329D02*
X006857Y015329D01*
X006922Y015487D02*
X007167Y015487D01*
X007167Y015646D02*
X006927Y015646D01*
X006927Y015804D02*
X007167Y015804D01*
X007167Y015963D02*
X006927Y015963D01*
X006927Y016121D02*
X007167Y016121D01*
X007167Y016280D02*
X006927Y016280D01*
X006927Y016438D02*
X007167Y016438D01*
X007167Y016597D02*
X006927Y016597D01*
X006927Y016755D02*
X007190Y016755D01*
X007286Y016914D02*
X006927Y016914D01*
X006865Y017072D02*
X007445Y017072D01*
X007603Y017231D02*
X006742Y017231D01*
X006671Y017389D02*
X007762Y017389D01*
X007917Y017548D02*
X006700Y017548D01*
X006700Y017706D02*
X007917Y017706D01*
X007917Y017865D02*
X006684Y017865D01*
X006642Y018023D02*
X007917Y018023D01*
X007917Y018182D02*
X006577Y018182D01*
X006486Y018340D02*
X007865Y018340D01*
X007817Y018499D02*
X006344Y018499D01*
X006144Y018657D02*
X007817Y018657D01*
X007817Y018816D02*
X005750Y018816D01*
X005280Y018816D02*
X002357Y018816D01*
X002357Y018974D02*
X007817Y018974D01*
X007817Y019133D02*
X002357Y019133D01*
X002357Y019291D02*
X007826Y019291D01*
X009927Y018349D02*
X009927Y017349D01*
X010343Y016932D01*
X013472Y016932D01*
X013131Y017273D01*
X013131Y017273D01*
X013018Y017386D01*
X012957Y017533D01*
X012957Y018199D01*
X012899Y018257D01*
X012817Y018455D01*
X012817Y019270D01*
X012830Y019300D01*
X010817Y019300D01*
X010825Y019275D01*
X010837Y019200D01*
X010837Y018883D01*
X010377Y018883D01*
X010377Y018842D01*
X010377Y018083D01*
X010395Y018083D01*
X010470Y018094D01*
X010542Y018118D01*
X010609Y018152D01*
X010670Y018196D01*
X010723Y018250D01*
X010768Y018311D01*
X010802Y018378D01*
X010825Y018450D01*
X010837Y018525D01*
X010837Y018842D01*
X010377Y018842D01*
X010337Y018842D01*
X010337Y018083D01*
X010320Y018083D01*
X010245Y018094D01*
X010173Y018118D01*
X010106Y018152D01*
X010045Y018196D01*
X009991Y018250D01*
X009947Y018311D01*
X009927Y018349D01*
X009927Y018340D02*
X009932Y018340D01*
X009927Y018182D02*
X010065Y018182D01*
X009927Y018023D02*
X012957Y018023D01*
X012957Y017865D02*
X009927Y017865D01*
X009927Y017706D02*
X012957Y017706D01*
X012957Y017548D02*
X009927Y017548D01*
X009927Y017389D02*
X013017Y017389D01*
X013174Y017231D02*
X010045Y017231D01*
X010204Y017072D02*
X013332Y017072D01*
X012957Y018182D02*
X010650Y018182D01*
X010783Y018340D02*
X012865Y018340D01*
X012817Y018499D02*
X010833Y018499D01*
X010837Y018657D02*
X012817Y018657D01*
X012817Y018816D02*
X010837Y018816D01*
X010837Y018974D02*
X012817Y018974D01*
X012817Y019133D02*
X010837Y019133D01*
X010820Y019291D02*
X012826Y019291D01*
X010377Y018816D02*
X010337Y018816D01*
X010337Y018657D02*
X010377Y018657D01*
X010377Y018499D02*
X010337Y018499D01*
X010337Y018340D02*
X010377Y018340D01*
X010377Y018182D02*
X010337Y018182D01*
X007379Y014219D02*
X005770Y014219D01*
X004537Y014219D02*
X002357Y014219D01*
X002357Y014061D02*
X003215Y014061D01*
X003057Y013902D02*
X002357Y013902D01*
X002357Y013744D02*
X002987Y013744D01*
X003005Y013427D02*
X002357Y013427D01*
X002357Y013585D02*
X003820Y013585D01*
X003820Y013427D02*
X003895Y013427D01*
X003895Y013268D02*
X003820Y013268D01*
X003820Y013110D02*
X003895Y013110D01*
X004385Y013110D02*
X004537Y013110D01*
X004537Y012951D02*
X002357Y012951D01*
X002357Y012793D02*
X004537Y012793D01*
X004537Y012634D02*
X002357Y012634D01*
X002357Y012476D02*
X004414Y012476D01*
X004256Y012317D02*
X002357Y012317D01*
X002357Y012159D02*
X003275Y012159D01*
X003054Y012000D02*
X002357Y012000D01*
X002357Y011842D02*
X002958Y011842D01*
X002912Y011683D02*
X002357Y011683D01*
X002357Y011525D02*
X002912Y011525D01*
X002966Y011366D02*
X002357Y011366D01*
X002357Y011208D02*
X003072Y011208D01*
X003317Y011049D02*
X002357Y011049D01*
X002357Y010891D02*
X004273Y010891D01*
X004432Y010732D02*
X002357Y010732D01*
X002357Y010574D02*
X004537Y010574D01*
X004537Y010415D02*
X002357Y010415D01*
X002357Y010257D02*
X004537Y010257D01*
X004537Y010098D02*
X004430Y010098D01*
X003895Y010098D02*
X003820Y010098D01*
X003820Y009940D02*
X003895Y009940D01*
X003895Y009781D02*
X003820Y009781D01*
X003820Y009623D02*
X002357Y009623D01*
X002357Y009781D02*
X003000Y009781D01*
X003084Y009940D02*
X002357Y009940D01*
X002357Y010098D02*
X003285Y010098D01*
X002993Y009464D02*
X002357Y009464D01*
X002357Y009306D02*
X003070Y009306D01*
X003245Y009147D02*
X002357Y009147D01*
X002357Y008989D02*
X004537Y008989D01*
X004537Y009147D02*
X004469Y009147D01*
X004537Y008830D02*
X002357Y008830D01*
X002357Y008672D02*
X004537Y008672D01*
X004452Y008513D02*
X002357Y008513D01*
X002357Y008355D02*
X004293Y008355D01*
X003895Y009147D02*
X003820Y009147D01*
X003820Y009306D02*
X003895Y009306D01*
X003895Y009464D02*
X003820Y009464D01*
X003365Y008196D02*
X002357Y008196D01*
X002357Y008038D02*
X003092Y008038D01*
X002974Y007879D02*
X002357Y007879D01*
X002357Y007721D02*
X002912Y007721D01*
X002912Y007562D02*
X002357Y007562D01*
X002357Y007404D02*
X002950Y007404D01*
X003034Y007245D02*
X002357Y007245D01*
X002357Y007087D02*
X002650Y007087D01*
X002501Y006928D02*
X002357Y006928D01*
X002475Y006864D02*
X002475Y004111D01*
X002524Y003994D01*
X002614Y003904D01*
X002731Y003855D01*
X005858Y003855D01*
X005976Y003904D01*
X006066Y003994D01*
X006115Y004111D01*
X006115Y005733D01*
X007245Y004602D01*
X007154Y004602D01*
X006867Y004315D01*
X006867Y004113D01*
X007357Y004113D01*
X007357Y004112D01*
X006867Y004112D01*
X006867Y003910D01*
X007153Y003623D01*
X007046Y003579D01*
X006891Y003424D01*
X006807Y003222D01*
X006807Y003003D01*
X006891Y002801D01*
X007046Y002646D01*
X007248Y002563D01*
X007467Y002563D01*
X007667Y002646D01*
X007667Y001795D01*
X007425Y001552D01*
X005624Y001552D01*
X005564Y001612D01*
X005150Y001612D01*
X005090Y001552D01*
X004624Y001552D01*
X004564Y001612D01*
X004150Y001612D01*
X003918Y001381D02*
X003712Y001381D01*
X003797Y001222D02*
X003857Y001222D01*
X003857Y001064D02*
X003797Y001064D01*
X003772Y000905D02*
X003858Y000905D01*
X004016Y000747D02*
X003614Y000747D01*
X003357Y000747D02*
X003357Y000747D01*
X003357Y000905D02*
X003357Y000905D01*
X003357Y001064D02*
X003357Y001064D01*
X003357Y001222D02*
X003357Y001222D01*
X003357Y001381D02*
X003357Y001381D01*
X003357Y001539D02*
X003357Y001539D01*
X003162Y001539D02*
X002357Y001539D01*
X002357Y001381D02*
X003003Y001381D01*
X002917Y001222D02*
X002357Y001222D01*
X002357Y001064D02*
X002917Y001064D01*
X002943Y000905D02*
X002357Y000905D01*
X002357Y000747D02*
X003101Y000747D01*
X002357Y000588D02*
X017413Y000588D01*
X017340Y000747D02*
X007864Y000747D01*
X008022Y000905D02*
X011453Y000905D01*
X011329Y001064D02*
X008181Y001064D01*
X008339Y001222D02*
X011263Y001222D01*
X011262Y001381D02*
X008487Y001381D01*
X008547Y001539D02*
X011295Y001539D01*
X011819Y002015D02*
X013372Y002015D01*
X013462Y001797D01*
X013629Y001630D01*
X013847Y001540D01*
X014788Y001540D01*
X015005Y001630D01*
X015172Y001797D01*
X015262Y002015D01*
X015262Y002250D01*
X015172Y002468D01*
X015005Y002635D01*
X014788Y002725D01*
X013847Y002725D01*
X013629Y002635D01*
X013462Y002468D01*
X013372Y002250D01*
X013372Y002015D01*
X013372Y002173D02*
X011978Y002173D01*
X012136Y002332D02*
X013406Y002332D01*
X013484Y002490D02*
X012294Y002490D01*
X012359Y002649D02*
X013662Y002649D01*
X013438Y001856D02*
X012172Y001856D01*
X012344Y001698D02*
X013562Y001698D01*
X012420Y001539D02*
X016309Y001539D01*
X016150Y001698D02*
X015073Y001698D01*
X015197Y001856D02*
X015992Y001856D01*
X015833Y002015D02*
X015262Y002015D01*
X015262Y002173D02*
X015675Y002173D01*
X015516Y002332D02*
X015229Y002332D01*
X015150Y002490D02*
X015358Y002490D01*
X015220Y002649D02*
X014972Y002649D01*
X015167Y002807D02*
X012360Y002807D01*
X012360Y002966D02*
X015167Y002966D01*
X015167Y003124D02*
X012360Y003124D01*
X012360Y003283D02*
X015167Y003283D01*
X015167Y003441D02*
X012360Y003441D01*
X012350Y003600D02*
X013620Y003600D01*
X013462Y003758D02*
X012272Y003758D01*
X012123Y003917D02*
X013396Y003917D01*
X013372Y004075D02*
X011978Y004075D01*
X011833Y004234D02*
X013382Y004234D01*
X013448Y004392D02*
X012208Y004392D01*
X012364Y004551D02*
X013585Y004551D01*
X014322Y005026D02*
X012442Y005026D01*
X012452Y004868D02*
X014480Y004868D01*
X014639Y004709D02*
X012429Y004709D01*
X011483Y005350D02*
X011353Y005220D01*
X011262Y005001D01*
X011262Y004875D01*
X010799Y005409D01*
X010793Y005424D01*
X010742Y005475D01*
X010695Y005529D01*
X010680Y005537D01*
X010669Y005548D01*
X010603Y005575D01*
X010538Y005608D01*
X010522Y005609D01*
X010507Y005615D01*
X010435Y005615D01*
X010364Y005620D01*
X010348Y005615D01*
X008832Y005615D01*
X008779Y005593D01*
X008694Y005593D01*
X008606Y005557D01*
X008538Y005489D01*
X008502Y005401D01*
X008502Y005315D01*
X008480Y005263D01*
X008480Y005087D01*
X008502Y005035D01*
X008502Y004949D01*
X008538Y004861D01*
X008606Y004793D01*
X008694Y004757D01*
X008779Y004757D01*
X008832Y004735D01*
X010219Y004735D01*
X010847Y004011D01*
X010849Y004005D01*
X010904Y003945D01*
X010957Y003883D01*
X010963Y003880D01*
X011260Y003556D01*
X011245Y003561D01*
X011173Y003572D01*
X010867Y003572D01*
X010867Y003123D01*
X010847Y003123D01*
X010847Y003572D01*
X010541Y003572D01*
X010470Y003561D01*
X010401Y003539D01*
X010336Y003506D01*
X010278Y003463D01*
X010226Y003412D01*
X010184Y003354D01*
X010151Y003289D01*
X010129Y003220D01*
X010117Y003149D01*
X010117Y003123D01*
X010847Y003123D01*
X010847Y003102D01*
X010867Y003102D01*
X010867Y002652D01*
X011173Y002653D01*
X011220Y002660D01*
X011193Y002632D01*
X010474Y002632D01*
X010283Y002553D01*
X010282Y002552D01*
X010168Y002552D01*
X010085Y002635D01*
X009868Y002725D01*
X008927Y002725D01*
X008709Y002635D01*
X008547Y002473D01*
X008547Y003900D01*
X008551Y003888D01*
X008589Y003813D01*
X008639Y003746D01*
X008698Y003686D01*
X008766Y003637D01*
X008840Y003599D01*
X008920Y003573D01*
X009003Y003560D01*
X009360Y003560D01*
X009360Y004055D01*
X009435Y004055D01*
X009435Y004130D01*
X010282Y004130D01*
X010282Y004134D01*
X010269Y004217D01*
X010243Y004297D01*
X010205Y004372D01*
X010156Y004439D01*
X010097Y004499D01*
X010029Y004548D01*
X009954Y004586D01*
X009874Y004612D01*
X009792Y004625D01*
X009435Y004625D01*
X009435Y004130D01*
X009360Y004130D01*
X009360Y004625D01*
X009003Y004625D01*
X008920Y004612D01*
X008840Y004586D01*
X008766Y004548D01*
X008698Y004499D01*
X008639Y004439D01*
X008589Y004372D01*
X008551Y004297D01*
X008547Y004285D01*
X008547Y004450D01*
X008480Y004612D01*
X007016Y006076D01*
X007330Y006076D01*
X007585Y006331D01*
X008363Y006646D01*
X009096Y006646D01*
X009184Y006683D01*
X009252Y006750D01*
X009288Y006838D01*
X009288Y007153D01*
X011483Y005350D01*
X011476Y005343D02*
X010856Y005343D01*
X010719Y005502D02*
X011299Y005502D01*
X011106Y005660D02*
X007432Y005660D01*
X007274Y005819D02*
X010913Y005819D01*
X010720Y005977D02*
X007115Y005977D01*
X007390Y006136D02*
X010527Y006136D01*
X010334Y006294D02*
X007548Y006294D01*
X007885Y006453D02*
X010141Y006453D01*
X009948Y006611D02*
X008277Y006611D01*
X009260Y006770D02*
X009755Y006770D01*
X009562Y006928D02*
X009288Y006928D01*
X009288Y007087D02*
X009369Y007087D01*
X008551Y005502D02*
X007591Y005502D01*
X007749Y005343D02*
X008502Y005343D01*
X008480Y005185D02*
X007908Y005185D01*
X008066Y005026D02*
X008502Y005026D01*
X008535Y004868D02*
X008225Y004868D01*
X008383Y004709D02*
X010241Y004709D01*
X010379Y004551D02*
X010024Y004551D01*
X010190Y004392D02*
X010516Y004392D01*
X010653Y004234D02*
X010264Y004234D01*
X010282Y004055D02*
X009435Y004055D01*
X009435Y003560D01*
X009792Y003560D01*
X009874Y003573D01*
X009954Y003599D01*
X010029Y003637D01*
X010097Y003686D01*
X010156Y003746D01*
X010205Y003813D01*
X010243Y003888D01*
X010269Y003968D01*
X010282Y004051D01*
X010282Y004055D01*
X010253Y003917D02*
X010928Y003917D01*
X010791Y004075D02*
X009435Y004075D01*
X009435Y003917D02*
X009360Y003917D01*
X009360Y003758D02*
X009435Y003758D01*
X009435Y003600D02*
X009360Y003600D01*
X008839Y003600D02*
X008547Y003600D01*
X008547Y003758D02*
X008630Y003758D01*
X008547Y003441D02*
X010255Y003441D01*
X010149Y003283D02*
X008547Y003283D01*
X008547Y003124D02*
X010117Y003124D01*
X010117Y003102D02*
X010117Y003076D01*
X010129Y003005D01*
X010151Y002936D01*
X010184Y002871D01*
X010226Y002813D01*
X010278Y002762D01*
X010336Y002719D01*
X010401Y002686D01*
X010470Y002664D01*
X010541Y002653D01*
X010847Y002653D01*
X010847Y003102D01*
X010117Y003102D01*
X010141Y002966D02*
X008547Y002966D01*
X008547Y002807D02*
X010232Y002807D01*
X010052Y002649D02*
X011209Y002649D01*
X010867Y002807D02*
X010847Y002807D01*
X010847Y002966D02*
X010867Y002966D01*
X010867Y003124D02*
X010847Y003124D01*
X010847Y003283D02*
X010867Y003283D01*
X010867Y003441D02*
X010847Y003441D01*
X011075Y003758D02*
X010165Y003758D01*
X009955Y003600D02*
X011220Y003600D01*
X011273Y005026D02*
X011131Y005026D01*
X010994Y005185D02*
X011338Y005185D01*
X012770Y006802D02*
X009406Y009686D01*
X009357Y009736D01*
X009340Y009742D01*
X009327Y009754D01*
X009288Y009766D01*
X009288Y009769D01*
X009252Y009857D01*
X009230Y009878D01*
X009252Y009900D01*
X009288Y009988D01*
X009288Y010556D01*
X009252Y010644D01*
X009230Y010666D01*
X009252Y010687D01*
X009288Y010775D01*
X009288Y011343D01*
X009252Y011432D01*
X009230Y011453D01*
X009252Y011475D01*
X009288Y011563D01*
X009288Y012131D01*
X009252Y012219D01*
X009230Y012240D01*
X009252Y012262D01*
X009288Y012350D01*
X009288Y012918D01*
X009261Y012985D01*
X013159Y012985D01*
X013101Y012927D01*
X013064Y012838D01*
X013064Y012726D01*
X013046Y012744D01*
X012958Y012781D01*
X012506Y012781D01*
X012418Y012744D01*
X012351Y012677D01*
X012314Y012588D01*
X012314Y012137D01*
X012332Y012093D01*
X012332Y009033D01*
X012393Y008886D01*
X012893Y008386D01*
X013006Y008273D01*
X013153Y008213D01*
X013934Y008213D01*
X013926Y008194D01*
X013926Y007626D01*
X013963Y007538D01*
X014027Y007474D01*
X014022Y007469D01*
X013999Y007428D01*
X013986Y007382D01*
X013986Y007160D01*
X014522Y007160D01*
X014522Y007084D01*
X013986Y007084D01*
X013986Y006862D01*
X013999Y006817D01*
X014007Y006802D01*
X012770Y006802D01*
X012624Y006928D02*
X013986Y006928D01*
X013986Y007245D02*
X012254Y007245D01*
X012439Y007087D02*
X014522Y007087D01*
X014598Y007087D02*
X015874Y007087D01*
X015885Y007076D02*
X015896Y007076D01*
X015630Y006810D01*
X015630Y006631D01*
X016089Y006631D01*
X016089Y006594D01*
X016126Y006594D01*
X016126Y006631D01*
X016584Y006631D01*
X016584Y006810D01*
X016318Y007076D01*
X016330Y007076D01*
X016644Y007390D01*
X016644Y007835D01*
X016367Y008113D01*
X016644Y008390D01*
X016644Y008835D01*
X016367Y009113D01*
X016644Y009390D01*
X016644Y009835D01*
X016367Y010113D01*
X016636Y010382D01*
X016647Y010361D01*
X016691Y010300D01*
X016745Y010246D01*
X016806Y010202D01*
X016873Y010168D01*
X016945Y010144D01*
X017020Y010133D01*
X017337Y010133D01*
X017337Y010592D01*
X017377Y010592D01*
X017377Y010132D01*
X017695Y010133D01*
X017770Y010144D01*
X017842Y010168D01*
X017909Y010202D01*
X017970Y010246D01*
X018023Y010300D01*
X018068Y010361D01*
X018102Y010428D01*
X018125Y010500D01*
X018137Y010575D01*
X018137Y010592D01*
X017377Y010592D01*
X017377Y010633D01*
X018137Y010633D01*
X018137Y010650D01*
X018125Y010725D01*
X018102Y010797D01*
X018068Y010864D01*
X018023Y010925D01*
X017970Y010979D01*
X017909Y011023D01*
X017842Y011057D01*
X017778Y011078D01*
X017963Y011155D01*
X018115Y011307D01*
X018197Y011505D01*
X018197Y011720D01*
X018115Y011918D01*
X017963Y012070D01*
X017861Y012113D01*
X017963Y012155D01*
X018115Y012307D01*
X018186Y012478D01*
X019109Y011555D01*
X019002Y011448D01*
X018954Y011332D01*
X018358Y010736D01*
X018234Y010612D01*
X018167Y010450D01*
X018167Y005525D01*
X018234Y005363D01*
X018984Y004613D01*
X019108Y004489D01*
X019208Y004448D01*
X019251Y004405D01*
X019353Y004363D01*
X019251Y004320D01*
X019099Y004168D01*
X019017Y003970D01*
X019017Y003755D01*
X019099Y003557D01*
X019251Y003405D01*
X019450Y003323D01*
X020265Y003323D01*
X020463Y003405D01*
X020615Y003557D01*
X020697Y003755D01*
X020697Y003970D01*
X020615Y004168D01*
X020463Y004320D01*
X020361Y004363D01*
X020463Y004405D01*
X020615Y004557D01*
X020697Y004755D01*
X020697Y004970D01*
X020615Y005168D01*
X020463Y005320D01*
X020361Y005363D01*
X020463Y005405D01*
X020615Y005557D01*
X020697Y005755D01*
X020697Y005970D01*
X020615Y006168D01*
X020463Y006320D01*
X020361Y006363D01*
X020463Y006405D01*
X020481Y006423D01*
X020695Y006423D01*
X020857Y006489D01*
X020980Y006613D01*
X021170Y006803D01*
X021170Y000425D01*
X018606Y000425D01*
X018659Y000452D01*
X018720Y000496D01*
X018773Y000550D01*
X018818Y000611D01*
X018852Y000678D01*
X018875Y000750D01*
X018887Y000825D01*
X018887Y000842D01*
X018127Y000842D01*
X018127Y000883D01*
X018887Y000883D01*
X018887Y000900D01*
X018875Y000975D01*
X018852Y001047D01*
X018818Y001114D01*
X018773Y001175D01*
X018720Y001229D01*
X018659Y001273D01*
X018592Y001307D01*
X018528Y001328D01*
X018713Y001405D01*
X018865Y001557D01*
X018947Y001755D01*
X018947Y001970D01*
X018865Y002168D01*
X018713Y002320D01*
X018611Y002363D01*
X018713Y002405D01*
X018865Y002557D01*
X018947Y002755D01*
X018947Y002970D01*
X018865Y003168D01*
X018713Y003320D01*
X018611Y003363D01*
X018713Y003405D01*
X018865Y003557D01*
X018947Y003755D01*
X018947Y003970D01*
X018865Y004168D01*
X018713Y004320D01*
X018515Y004402D01*
X017700Y004402D01*
X017501Y004320D01*
X017349Y004168D01*
X017267Y003970D01*
X017267Y003755D01*
X017349Y003557D01*
X017501Y003405D01*
X017603Y003363D01*
X017501Y003320D01*
X017484Y003302D01*
X017290Y003302D01*
X016797Y003795D01*
X016797Y004700D01*
X016730Y004862D01*
X014980Y006612D01*
X014886Y006706D01*
X014977Y006706D01*
X015023Y006718D01*
X015064Y006742D01*
X015098Y006776D01*
X015121Y006817D01*
X015134Y006862D01*
X015134Y007084D01*
X014598Y007084D01*
X014598Y007160D01*
X015134Y007160D01*
X015134Y007382D01*
X015121Y007428D01*
X015117Y007436D01*
X015686Y007275D01*
X015885Y007076D01*
X015748Y006928D02*
X015134Y006928D01*
X015092Y006770D02*
X015630Y006770D01*
X015630Y006594D02*
X015630Y006415D01*
X015910Y006136D01*
X016089Y006136D01*
X016089Y006594D01*
X015630Y006594D01*
X015630Y006453D02*
X015140Y006453D01*
X014981Y006611D02*
X016089Y006611D01*
X016126Y006611D02*
X018167Y006611D01*
X018167Y006453D02*
X016584Y006453D01*
X016584Y006415D02*
X016584Y006594D01*
X016126Y006594D01*
X016126Y006136D01*
X016305Y006136D01*
X016584Y006415D01*
X016463Y006294D02*
X018167Y006294D01*
X018167Y006136D02*
X015457Y006136D01*
X015298Y006294D02*
X015751Y006294D01*
X015615Y005977D02*
X018167Y005977D01*
X018167Y005819D02*
X015774Y005819D01*
X015932Y005660D02*
X018167Y005660D01*
X018177Y005502D02*
X016091Y005502D01*
X016249Y005343D02*
X018255Y005343D01*
X018413Y005185D02*
X016408Y005185D01*
X016566Y005026D02*
X018572Y005026D01*
X018730Y004868D02*
X016725Y004868D01*
X016794Y004709D02*
X018889Y004709D01*
X019047Y004551D02*
X016797Y004551D01*
X016797Y004392D02*
X017675Y004392D01*
X017415Y004234D02*
X016797Y004234D01*
X016797Y004075D02*
X017311Y004075D01*
X017267Y003917D02*
X016797Y003917D01*
X016834Y003758D02*
X017267Y003758D01*
X017332Y003600D02*
X016993Y003600D01*
X017151Y003441D02*
X017465Y003441D01*
X018540Y004392D02*
X019282Y004392D01*
X019165Y004234D02*
X018800Y004234D01*
X018904Y004075D02*
X019061Y004075D01*
X019017Y003917D02*
X018947Y003917D01*
X018947Y003758D02*
X019017Y003758D01*
X019082Y003600D02*
X018883Y003600D01*
X018749Y003441D02*
X019215Y003441D01*
X018883Y003124D02*
X021170Y003124D01*
X021170Y002966D02*
X018947Y002966D01*
X018947Y002807D02*
X021170Y002807D01*
X021170Y002649D02*
X018903Y002649D01*
X018798Y002490D02*
X021170Y002490D01*
X021170Y002332D02*
X018686Y002332D01*
X018860Y002173D02*
X021170Y002173D01*
X021170Y002015D02*
X018929Y002015D01*
X018947Y001856D02*
X021170Y001856D01*
X021170Y001698D02*
X018923Y001698D01*
X018847Y001539D02*
X021170Y001539D01*
X021170Y001381D02*
X018655Y001381D01*
X018727Y001222D02*
X021170Y001222D01*
X021170Y001064D02*
X018844Y001064D01*
X018887Y000905D02*
X021170Y000905D01*
X021170Y000747D02*
X018874Y000747D01*
X018801Y000588D02*
X021170Y000588D01*
X021170Y000430D02*
X018615Y000430D01*
X017600Y000430D02*
X002357Y000430D01*
X002357Y001698D02*
X003065Y001698D01*
X002907Y001856D02*
X002357Y001856D01*
X002357Y002015D02*
X002857Y002015D01*
X002857Y002173D02*
X002357Y002173D01*
X002357Y002332D02*
X002869Y002332D01*
X003028Y002490D02*
X002357Y002490D01*
X002357Y002649D02*
X007043Y002649D01*
X006889Y002807D02*
X002357Y002807D01*
X002357Y002966D02*
X006823Y002966D01*
X006807Y003124D02*
X002357Y003124D01*
X002357Y003283D02*
X006832Y003283D01*
X006908Y003441D02*
X002357Y003441D01*
X002357Y003600D02*
X007096Y003600D01*
X007019Y003758D02*
X002357Y003758D01*
X002357Y003917D02*
X002601Y003917D01*
X002490Y004075D02*
X002357Y004075D01*
X003687Y002490D02*
X004113Y002490D01*
X003954Y002332D02*
X003845Y002332D01*
X003857Y002173D02*
X003917Y002173D01*
X003917Y002015D02*
X003857Y002015D01*
X003808Y001856D02*
X003992Y001856D01*
X004565Y001698D02*
X005065Y001698D01*
X005150Y001613D02*
X004857Y001905D01*
X004857Y002320D01*
X005150Y002612D01*
X005564Y002612D01*
X005857Y002320D01*
X005857Y001905D01*
X005564Y001613D01*
X005150Y001613D01*
X004907Y001856D02*
X004723Y001856D01*
X004797Y002015D02*
X004857Y002015D01*
X004857Y002173D02*
X004797Y002173D01*
X004761Y002332D02*
X004869Y002332D01*
X005028Y002490D02*
X004602Y002490D01*
X004357Y002490D02*
X004357Y002490D01*
X004357Y002332D02*
X004357Y002332D01*
X005687Y002490D02*
X007667Y002490D01*
X007667Y002332D02*
X005845Y002332D01*
X005857Y002173D02*
X007667Y002173D01*
X007667Y002015D02*
X005857Y002015D01*
X005808Y001856D02*
X007667Y001856D01*
X007570Y001698D02*
X005649Y001698D01*
X005989Y003917D02*
X006867Y003917D01*
X006867Y004075D02*
X006100Y004075D01*
X006115Y004234D02*
X006867Y004234D01*
X006944Y004392D02*
X006115Y004392D01*
X006115Y004551D02*
X007102Y004551D01*
X007139Y004709D02*
X006115Y004709D01*
X006115Y004868D02*
X006980Y004868D01*
X006822Y005026D02*
X006115Y005026D01*
X006115Y005185D02*
X006663Y005185D01*
X006505Y005343D02*
X006115Y005343D01*
X006115Y005502D02*
X006346Y005502D01*
X006188Y005660D02*
X006115Y005660D01*
X008506Y004551D02*
X008771Y004551D01*
X008604Y004392D02*
X008547Y004392D01*
X009360Y004392D02*
X009435Y004392D01*
X009435Y004234D02*
X009360Y004234D01*
X009360Y004551D02*
X009435Y004551D01*
X008742Y002649D02*
X008547Y002649D01*
X008547Y002490D02*
X008564Y002490D01*
X008547Y001698D02*
X008642Y001698D01*
X008357Y001239D02*
X008357Y001239D01*
X012261Y000905D02*
X017328Y000905D01*
X017371Y001064D02*
X012386Y001064D01*
X012451Y001222D02*
X017488Y001222D01*
X017560Y001381D02*
X012452Y001381D01*
X015015Y003600D02*
X015167Y003600D01*
X016089Y006294D02*
X016126Y006294D01*
X016126Y006453D02*
X016089Y006453D01*
X016584Y006770D02*
X018167Y006770D01*
X018167Y006928D02*
X016466Y006928D01*
X016341Y007087D02*
X018167Y007087D01*
X018167Y007245D02*
X016499Y007245D01*
X016644Y007404D02*
X018167Y007404D01*
X018167Y007562D02*
X016644Y007562D01*
X016644Y007721D02*
X018167Y007721D01*
X018167Y007879D02*
X016600Y007879D01*
X016441Y008038D02*
X018167Y008038D01*
X018167Y008196D02*
X016450Y008196D01*
X016609Y008355D02*
X018167Y008355D01*
X018167Y008513D02*
X016644Y008513D01*
X016644Y008672D02*
X018167Y008672D01*
X018167Y008830D02*
X016644Y008830D01*
X016490Y008989D02*
X018167Y008989D01*
X018167Y009147D02*
X016401Y009147D01*
X016560Y009306D02*
X018167Y009306D01*
X018167Y009464D02*
X016644Y009464D01*
X016644Y009623D02*
X018167Y009623D01*
X018167Y009781D02*
X016644Y009781D01*
X016539Y009940D02*
X018167Y009940D01*
X018167Y010098D02*
X016381Y010098D01*
X016511Y010257D02*
X016734Y010257D01*
X017337Y010257D02*
X017377Y010257D01*
X017377Y010415D02*
X017337Y010415D01*
X017337Y010574D02*
X017377Y010574D01*
X017980Y010257D02*
X018167Y010257D01*
X018167Y010415D02*
X018095Y010415D01*
X018137Y010574D02*
X018218Y010574D01*
X018123Y010732D02*
X018355Y010732D01*
X018513Y010891D02*
X018049Y010891D01*
X017858Y011049D02*
X018672Y011049D01*
X018830Y011208D02*
X018016Y011208D01*
X018140Y011366D02*
X018968Y011366D01*
X019079Y011525D02*
X018197Y011525D01*
X018197Y011683D02*
X018981Y011683D01*
X018822Y011842D02*
X018147Y011842D01*
X018033Y012000D02*
X018664Y012000D01*
X018505Y012159D02*
X017967Y012159D01*
X018119Y012317D02*
X018347Y012317D01*
X018188Y012476D02*
X018185Y012476D01*
X020922Y015170D02*
X021170Y015170D01*
X021170Y015012D02*
X021081Y015012D01*
X021170Y014922D02*
X020760Y015332D01*
X020712Y015448D01*
X020545Y015615D01*
X020328Y015705D01*
X020071Y015705D01*
X019927Y015849D01*
X019927Y018349D01*
X019947Y018311D01*
X019991Y018250D01*
X020045Y018196D01*
X020106Y018152D01*
X020173Y018118D01*
X020245Y018094D01*
X020320Y018083D01*
X020337Y018083D01*
X020337Y018842D01*
X020377Y018842D01*
X020377Y018083D01*
X020395Y018083D01*
X020470Y018094D01*
X020542Y018118D01*
X020609Y018152D01*
X020670Y018196D01*
X020723Y018250D01*
X020768Y018311D01*
X020802Y018378D01*
X020825Y018450D01*
X020837Y018525D01*
X020837Y018842D01*
X020377Y018842D01*
X020377Y018883D01*
X020837Y018883D01*
X020837Y019200D01*
X020825Y019275D01*
X020817Y019300D01*
X021170Y019300D01*
X021170Y014922D01*
X021170Y015329D02*
X020764Y015329D01*
X020673Y015487D02*
X021170Y015487D01*
X021170Y015646D02*
X020471Y015646D01*
X019972Y015804D02*
X021170Y015804D01*
X021170Y015963D02*
X019927Y015963D01*
X019927Y016121D02*
X021170Y016121D01*
X021170Y016280D02*
X019927Y016280D01*
X019927Y016438D02*
X021170Y016438D01*
X021170Y016597D02*
X019927Y016597D01*
X019927Y016755D02*
X021170Y016755D01*
X021170Y016914D02*
X019927Y016914D01*
X019927Y017072D02*
X021170Y017072D01*
X021170Y017231D02*
X019927Y017231D01*
X019927Y017389D02*
X021170Y017389D01*
X021170Y017548D02*
X019927Y017548D01*
X019927Y017706D02*
X021170Y017706D01*
X021170Y017865D02*
X019927Y017865D01*
X019927Y018023D02*
X021170Y018023D01*
X021170Y018182D02*
X020650Y018182D01*
X020783Y018340D02*
X021170Y018340D01*
X021170Y018499D02*
X020833Y018499D01*
X020837Y018657D02*
X021170Y018657D01*
X021170Y018816D02*
X020837Y018816D01*
X020837Y018974D02*
X021170Y018974D01*
X021170Y019133D02*
X020837Y019133D01*
X020820Y019291D02*
X021170Y019291D01*
X020377Y018816D02*
X020337Y018816D01*
X020337Y018657D02*
X020377Y018657D01*
X020377Y018499D02*
X020337Y018499D01*
X020337Y018340D02*
X020377Y018340D01*
X020377Y018182D02*
X020337Y018182D01*
X020065Y018182D02*
X019927Y018182D01*
X019927Y018340D02*
X019932Y018340D01*
X018332Y018023D02*
X018332Y017420D01*
X017620Y018031D01*
X017555Y018096D01*
X017534Y018104D01*
X017517Y018119D01*
X017430Y018147D01*
X017346Y018182D01*
X017323Y018182D01*
X017302Y018190D01*
X017210Y018182D01*
X015651Y018182D01*
X015670Y018196D01*
X015723Y018250D01*
X015768Y018311D01*
X015802Y018378D01*
X015825Y018450D01*
X015837Y018525D01*
X015837Y018842D01*
X015377Y018842D01*
X015377Y018883D01*
X015837Y018883D01*
X015837Y019200D01*
X015825Y019275D01*
X015817Y019300D01*
X017830Y019300D01*
X017817Y019270D01*
X017817Y018455D01*
X017899Y018257D01*
X018051Y018105D01*
X018250Y018023D01*
X018332Y018023D01*
X018249Y018023D02*
X017629Y018023D01*
X017814Y017865D02*
X018332Y017865D01*
X018332Y017706D02*
X017999Y017706D01*
X018184Y017548D02*
X018332Y017548D01*
X017975Y018182D02*
X017348Y018182D01*
X017865Y018340D02*
X015783Y018340D01*
X015833Y018499D02*
X017817Y018499D01*
X017817Y018657D02*
X015837Y018657D01*
X015837Y018816D02*
X017817Y018816D01*
X017817Y018974D02*
X015837Y018974D01*
X015837Y019133D02*
X017817Y019133D01*
X017826Y019291D02*
X015820Y019291D01*
X013125Y012951D02*
X009275Y012951D01*
X009288Y012793D02*
X013064Y012793D01*
X012333Y012634D02*
X009288Y012634D01*
X009288Y012476D02*
X012314Y012476D01*
X012314Y012317D02*
X009274Y012317D01*
X009277Y012159D02*
X012314Y012159D01*
X012332Y012000D02*
X009288Y012000D01*
X009288Y011842D02*
X012332Y011842D01*
X012332Y011683D02*
X009288Y011683D01*
X009272Y011525D02*
X012332Y011525D01*
X012332Y011366D02*
X009279Y011366D01*
X009288Y011208D02*
X012332Y011208D01*
X012332Y011049D02*
X009288Y011049D01*
X009288Y010891D02*
X012332Y010891D01*
X012332Y010732D02*
X009270Y010732D01*
X009281Y010574D02*
X012332Y010574D01*
X012332Y010415D02*
X009288Y010415D01*
X009288Y010257D02*
X012332Y010257D01*
X012332Y010098D02*
X009288Y010098D01*
X009268Y009940D02*
X012332Y009940D01*
X012332Y009781D02*
X009283Y009781D01*
X009480Y009623D02*
X012332Y009623D01*
X012332Y009464D02*
X009665Y009464D01*
X009850Y009306D02*
X012332Y009306D01*
X012332Y009147D02*
X010035Y009147D01*
X010220Y008989D02*
X012351Y008989D01*
X012449Y008830D02*
X010405Y008830D01*
X010590Y008672D02*
X012608Y008672D01*
X012766Y008513D02*
X010774Y008513D01*
X010959Y008355D02*
X012925Y008355D01*
X013953Y007562D02*
X011884Y007562D01*
X012069Y007404D02*
X013992Y007404D01*
X013926Y007721D02*
X011699Y007721D01*
X011514Y007879D02*
X013926Y007879D01*
X013926Y008038D02*
X011329Y008038D01*
X011144Y008196D02*
X013927Y008196D01*
X015128Y007404D02*
X015232Y007404D01*
X015134Y007245D02*
X015716Y007245D01*
X014980Y006612D02*
X014980Y006612D01*
X018751Y003283D02*
X021170Y003283D01*
X021170Y003441D02*
X020499Y003441D01*
X020633Y003600D02*
X021170Y003600D01*
X021170Y003758D02*
X020697Y003758D01*
X020697Y003917D02*
X021170Y003917D01*
X021170Y004075D02*
X020654Y004075D01*
X020550Y004234D02*
X021170Y004234D01*
X021170Y004392D02*
X020432Y004392D01*
X020609Y004551D02*
X021170Y004551D01*
X021170Y004709D02*
X020678Y004709D01*
X020697Y004868D02*
X021170Y004868D01*
X021170Y005026D02*
X020674Y005026D01*
X020599Y005185D02*
X021170Y005185D01*
X021170Y005343D02*
X020408Y005343D01*
X020560Y005502D02*
X021170Y005502D01*
X021170Y005660D02*
X020658Y005660D01*
X020697Y005819D02*
X021170Y005819D01*
X021170Y005977D02*
X020694Y005977D01*
X020629Y006136D02*
X021170Y006136D01*
X021170Y006294D02*
X020489Y006294D01*
X020767Y006453D02*
X021170Y006453D01*
X021170Y006611D02*
X020978Y006611D01*
X021137Y006770D02*
X021170Y006770D01*
X008218Y013427D02*
X008047Y013427D01*
X008218Y013585D02*
X007848Y013585D01*
X007649Y013744D02*
X008218Y013744D01*
X008218Y013902D02*
X007577Y013902D01*
X007471Y014061D02*
X007418Y014061D01*
X004537Y014061D02*
X004499Y014061D01*
X004537Y014378D02*
X002357Y014378D01*
X002357Y014536D02*
X004562Y014536D01*
X003887Y014695D02*
X002357Y014695D01*
X002357Y014853D02*
X003607Y014853D01*
X003448Y015012D02*
X002357Y015012D01*
X002357Y015170D02*
X003330Y015170D01*
X003239Y015329D02*
X002357Y015329D01*
X002357Y015487D02*
X003191Y015487D01*
X003149Y015646D02*
X002357Y015646D01*
X002357Y015804D02*
X003149Y015804D01*
X003150Y015963D02*
X002357Y015963D01*
X002357Y016121D02*
X003193Y016121D01*
X003241Y016280D02*
X002357Y016280D01*
X002357Y016438D02*
X003333Y016438D01*
X003272Y016597D02*
X003112Y016597D01*
X003112Y016755D02*
X003272Y016755D01*
X003272Y016914D02*
X003112Y016914D01*
X003112Y017072D02*
X003272Y017072D01*
X003272Y017231D02*
X003112Y017231D01*
X003112Y017389D02*
X003272Y017389D01*
X003272Y017548D02*
X003112Y017548D01*
X003272Y017706D02*
X004330Y017706D01*
X004315Y017732D02*
X004303Y017841D01*
X004275Y017964D01*
X004233Y018083D01*
X004178Y018197D01*
X004111Y018304D01*
X004032Y018403D01*
X003943Y018492D01*
X003844Y018571D01*
X003737Y018638D01*
X003623Y018693D01*
X003504Y018734D01*
X003381Y018763D01*
X003272Y018775D01*
X003272Y017732D01*
X004315Y017732D01*
X004297Y017865D02*
X004345Y017865D01*
X004388Y018023D02*
X004254Y018023D01*
X004185Y018182D02*
X004452Y018182D01*
X004544Y018340D02*
X004082Y018340D01*
X003934Y018499D02*
X004686Y018499D01*
X004886Y018657D02*
X003697Y018657D01*
X003272Y018657D02*
X003112Y018657D01*
X003112Y018499D02*
X003272Y018499D01*
X003272Y018340D02*
X003112Y018340D01*
X003112Y018182D02*
X003272Y018182D01*
X003272Y018023D02*
X003112Y018023D01*
X003112Y017865D02*
X003272Y017865D01*
X002449Y018499D02*
X002357Y018499D01*
X002357Y018657D02*
X002687Y018657D01*
X004312Y017548D02*
X004330Y017548D01*
X004359Y017389D02*
X004286Y017389D01*
X004236Y017231D02*
X004401Y017231D01*
X004481Y017072D02*
X004156Y017072D01*
X002802Y016597D02*
X002357Y016597D01*
X002357Y016755D02*
X002512Y016755D01*
X003820Y014061D02*
X003895Y014061D01*
X003895Y013902D02*
X003820Y013902D01*
X003820Y013744D02*
X003895Y013744D01*
X003330Y013110D02*
X002357Y013110D01*
X002357Y013268D02*
X003097Y013268D01*
D23*
X007857Y014363D03*
X012732Y012363D03*
X013482Y012613D03*
X016232Y015238D03*
X015982Y016113D03*
X017482Y016363D03*
X018732Y016363D03*
X008920Y005175D03*
X005920Y003550D03*
D24*
X004357Y007613D02*
X003857Y007613D01*
X004357Y007613D02*
X005107Y008363D01*
X005107Y010863D01*
X004357Y011613D01*
X005107Y012363D01*
X005107Y014363D01*
X006357Y015613D01*
X006357Y016809D01*
X005515Y017652D01*
X009357Y017113D02*
X009357Y018863D01*
X009357Y017113D02*
X010107Y016363D01*
X015357Y016363D01*
X015357Y014863D01*
X015857Y014363D01*
X017107Y014363D01*
X019857Y011613D01*
X019857Y011113D01*
X019857Y013113D02*
X019607Y013113D01*
X018107Y014738D01*
X018107Y016863D01*
X017232Y017613D01*
X014857Y017613D01*
X014357Y018113D01*
X014357Y018863D01*
X019357Y018863D02*
X019357Y015613D01*
X019857Y015113D01*
X005107Y012363D02*
X005107Y011613D01*
X004357Y011613D01*
X003857Y011613D01*
X005107Y011613D02*
X005107Y010863D01*
D25*
X005232Y006613D03*
X004857Y006613D03*
X004482Y006613D03*
X004107Y006613D03*
X003732Y006613D03*
X003357Y006613D03*
X002982Y006613D03*
X002982Y006238D03*
X003357Y006238D03*
X003357Y005863D03*
X002982Y005863D03*
X002982Y005488D03*
X002982Y005113D03*
X003357Y005113D03*
X003357Y005488D03*
X003732Y005488D03*
X003732Y005113D03*
X004107Y005113D03*
X004107Y005488D03*
X004482Y005488D03*
X004482Y005113D03*
X004857Y005113D03*
X004857Y005488D03*
X005232Y005488D03*
X005232Y005113D03*
X005607Y005113D03*
X005607Y005488D03*
X005607Y005863D03*
X005607Y006238D03*
X005607Y006613D03*
X005232Y006238D03*
X005232Y005863D03*
X005232Y004738D03*
X004857Y004738D03*
X004482Y004738D03*
X004107Y004738D03*
X003732Y004738D03*
X003357Y004738D03*
X002982Y004738D03*
X002982Y004363D03*
X003357Y004363D03*
X003732Y004363D03*
X004107Y004363D03*
X004482Y004363D03*
X004857Y004363D03*
X005232Y004363D03*
X005607Y004363D03*
X005607Y004738D03*
M02*
