G75*
%MOIN*%
%OFA0B0*%
%FSLAX24Y24*%
%IPPOS*%
%LPD*%
%AMOC8*
5,1,8,0,0,1.08239X$1,22.5*
%
%ADD10C,0.0000*%
%ADD11R,0.0630X0.0512*%
%ADD12R,0.0591X0.0787*%
%ADD13R,0.1496X0.0787*%
D10*
X002107Y000113D02*
X002107Y019609D01*
X021477Y019609D01*
X021477Y000113D01*
X002107Y000113D01*
X011502Y001343D02*
X011504Y001380D01*
X011510Y001417D01*
X011519Y001453D01*
X011533Y001487D01*
X011550Y001520D01*
X011570Y001552D01*
X011593Y001581D01*
X011619Y001607D01*
X011648Y001630D01*
X011679Y001650D01*
X011713Y001667D01*
X011747Y001681D01*
X011783Y001690D01*
X011820Y001696D01*
X011857Y001698D01*
X011894Y001696D01*
X011931Y001690D01*
X011967Y001681D01*
X012001Y001667D01*
X012034Y001650D01*
X012066Y001630D01*
X012095Y001607D01*
X012121Y001581D01*
X012144Y001552D01*
X012164Y001521D01*
X012181Y001487D01*
X012195Y001453D01*
X012204Y001417D01*
X012210Y001380D01*
X012212Y001343D01*
X012210Y001306D01*
X012204Y001269D01*
X012195Y001233D01*
X012181Y001199D01*
X012164Y001166D01*
X012144Y001134D01*
X012121Y001105D01*
X012095Y001079D01*
X012066Y001056D01*
X012035Y001036D01*
X012001Y001019D01*
X011967Y001005D01*
X011931Y000996D01*
X011894Y000990D01*
X011857Y000988D01*
X011820Y000990D01*
X011783Y000996D01*
X011747Y001005D01*
X011713Y001019D01*
X011680Y001036D01*
X011648Y001056D01*
X011619Y001079D01*
X011593Y001105D01*
X011570Y001134D01*
X011550Y001165D01*
X011533Y001199D01*
X011519Y001233D01*
X011510Y001269D01*
X011504Y001306D01*
X011502Y001343D01*
X011502Y004883D02*
X011504Y004920D01*
X011510Y004957D01*
X011519Y004993D01*
X011533Y005027D01*
X011550Y005060D01*
X011570Y005092D01*
X011593Y005121D01*
X011619Y005147D01*
X011648Y005170D01*
X011679Y005190D01*
X011713Y005207D01*
X011747Y005221D01*
X011783Y005230D01*
X011820Y005236D01*
X011857Y005238D01*
X011894Y005236D01*
X011931Y005230D01*
X011967Y005221D01*
X012001Y005207D01*
X012034Y005190D01*
X012066Y005170D01*
X012095Y005147D01*
X012121Y005121D01*
X012144Y005092D01*
X012164Y005061D01*
X012181Y005027D01*
X012195Y004993D01*
X012204Y004957D01*
X012210Y004920D01*
X012212Y004883D01*
X012210Y004846D01*
X012204Y004809D01*
X012195Y004773D01*
X012181Y004739D01*
X012164Y004706D01*
X012144Y004674D01*
X012121Y004645D01*
X012095Y004619D01*
X012066Y004596D01*
X012035Y004576D01*
X012001Y004559D01*
X011967Y004545D01*
X011931Y004536D01*
X011894Y004530D01*
X011857Y004528D01*
X011820Y004530D01*
X011783Y004536D01*
X011747Y004545D01*
X011713Y004559D01*
X011680Y004576D01*
X011648Y004596D01*
X011619Y004619D01*
X011593Y004645D01*
X011570Y004674D01*
X011550Y004705D01*
X011533Y004739D01*
X011519Y004773D01*
X011510Y004809D01*
X011504Y004846D01*
X011502Y004883D01*
D11*
X014857Y006738D03*
X014857Y007487D03*
X006357Y001862D03*
X006357Y001113D03*
X006107Y010738D03*
X006107Y011487D03*
X006857Y018238D03*
X006857Y018987D03*
X011857Y018987D03*
X011857Y018238D03*
X016857Y018238D03*
X016857Y018987D03*
D12*
X005200Y003497D03*
X004295Y003497D03*
X003389Y003497D03*
D13*
X004295Y005978D03*
M02*
