G75*
%MOIN*%
%OFA0B0*%
%FSLAX24Y24*%
%IPPOS*%
%LPD*%
%AMOC8*
5,1,8,0,0,1.08239X$1,22.5*
%
%ADD10C,0.0000*%
%ADD11C,0.0040*%
%ADD12C,0.0100*%
%ADD13C,0.0060*%
%ADD14C,0.0050*%
%ADD15C,0.0020*%
%ADD16R,0.0850X0.0200*%
%ADD17C,0.0080*%
%ADD18C,0.0030*%
%ADD19C,0.0200*%
%ADD20R,0.4200X0.0300*%
%ADD21R,0.0750X0.0200*%
%ADD22R,0.0300X0.0200*%
D10*
X002107Y000113D02*
X002107Y019609D01*
X021477Y019609D01*
X021477Y000113D01*
X002107Y000113D01*
X011502Y001343D02*
X011504Y001380D01*
X011510Y001417D01*
X011519Y001453D01*
X011533Y001487D01*
X011550Y001520D01*
X011570Y001552D01*
X011593Y001581D01*
X011619Y001607D01*
X011648Y001630D01*
X011679Y001650D01*
X011713Y001667D01*
X011747Y001681D01*
X011783Y001690D01*
X011820Y001696D01*
X011857Y001698D01*
X011894Y001696D01*
X011931Y001690D01*
X011967Y001681D01*
X012001Y001667D01*
X012034Y001650D01*
X012066Y001630D01*
X012095Y001607D01*
X012121Y001581D01*
X012144Y001552D01*
X012164Y001521D01*
X012181Y001487D01*
X012195Y001453D01*
X012204Y001417D01*
X012210Y001380D01*
X012212Y001343D01*
X012210Y001306D01*
X012204Y001269D01*
X012195Y001233D01*
X012181Y001199D01*
X012164Y001166D01*
X012144Y001134D01*
X012121Y001105D01*
X012095Y001079D01*
X012066Y001056D01*
X012035Y001036D01*
X012001Y001019D01*
X011967Y001005D01*
X011931Y000996D01*
X011894Y000990D01*
X011857Y000988D01*
X011820Y000990D01*
X011783Y000996D01*
X011747Y001005D01*
X011713Y001019D01*
X011680Y001036D01*
X011648Y001056D01*
X011619Y001079D01*
X011593Y001105D01*
X011570Y001134D01*
X011550Y001165D01*
X011533Y001199D01*
X011519Y001233D01*
X011510Y001269D01*
X011504Y001306D01*
X011502Y001343D01*
X011502Y004883D02*
X011504Y004920D01*
X011510Y004957D01*
X011519Y004993D01*
X011533Y005027D01*
X011550Y005060D01*
X011570Y005092D01*
X011593Y005121D01*
X011619Y005147D01*
X011648Y005170D01*
X011679Y005190D01*
X011713Y005207D01*
X011747Y005221D01*
X011783Y005230D01*
X011820Y005236D01*
X011857Y005238D01*
X011894Y005236D01*
X011931Y005230D01*
X011967Y005221D01*
X012001Y005207D01*
X012034Y005190D01*
X012066Y005170D01*
X012095Y005147D01*
X012121Y005121D01*
X012144Y005092D01*
X012164Y005061D01*
X012181Y005027D01*
X012195Y004993D01*
X012204Y004957D01*
X012210Y004920D01*
X012212Y004883D01*
X012210Y004846D01*
X012204Y004809D01*
X012195Y004773D01*
X012181Y004739D01*
X012164Y004706D01*
X012144Y004674D01*
X012121Y004645D01*
X012095Y004619D01*
X012066Y004596D01*
X012035Y004576D01*
X012001Y004559D01*
X011967Y004545D01*
X011931Y004536D01*
X011894Y004530D01*
X011857Y004528D01*
X011820Y004530D01*
X011783Y004536D01*
X011747Y004545D01*
X011713Y004559D01*
X011680Y004576D01*
X011648Y004596D01*
X011619Y004619D01*
X011593Y004645D01*
X011570Y004674D01*
X011550Y004705D01*
X011533Y004739D01*
X011519Y004773D01*
X011510Y004809D01*
X011504Y004846D01*
X011502Y004883D01*
D11*
X015565Y002093D02*
X015565Y001633D01*
X015795Y001633D01*
X015872Y001709D01*
X015872Y002016D01*
X015795Y002093D01*
X015565Y002093D01*
X016025Y001939D02*
X016025Y001633D01*
X016025Y001863D02*
X016332Y001863D01*
X016332Y001939D02*
X016332Y001633D01*
X016332Y001939D02*
X016179Y002093D01*
X016025Y001939D01*
X016486Y002093D02*
X016792Y002093D01*
X016639Y002093D02*
X016639Y001633D01*
X016946Y001633D02*
X016946Y001939D01*
X017099Y002093D01*
X017253Y001939D01*
X017253Y001633D01*
X017253Y001863D02*
X016946Y001863D01*
X016986Y002695D02*
X016986Y003155D01*
X017062Y002925D02*
X017292Y002695D01*
X016986Y002848D02*
X017292Y003155D01*
X017091Y003633D02*
X017167Y003709D01*
X017091Y003633D02*
X016937Y003633D01*
X016861Y003709D01*
X016861Y004016D01*
X016937Y004093D01*
X017091Y004093D01*
X017167Y004016D01*
X016707Y004016D02*
X016630Y004093D01*
X016477Y004093D01*
X016400Y004016D01*
X016400Y003709D01*
X016477Y003633D01*
X016630Y003633D01*
X016707Y003709D01*
X016247Y003786D02*
X016247Y004093D01*
X015940Y004093D02*
X015940Y003786D01*
X016093Y003633D01*
X016247Y003786D01*
X016295Y003155D02*
X016142Y003155D01*
X016065Y003079D01*
X016065Y002772D01*
X016142Y002695D01*
X016295Y002695D01*
X016372Y002772D01*
X016525Y002695D02*
X016832Y002695D01*
X016525Y002695D02*
X016525Y003155D01*
X016372Y003079D02*
X016295Y003155D01*
X016400Y001030D02*
X016707Y000570D01*
X016707Y001030D01*
X016861Y001030D02*
X017091Y001030D01*
X017167Y000954D01*
X017167Y000647D01*
X017091Y000570D01*
X016861Y000570D01*
X016861Y001030D01*
X016400Y001030D02*
X016400Y000570D01*
X016247Y000647D02*
X016247Y000800D01*
X016093Y000800D01*
X015940Y000647D02*
X016017Y000570D01*
X016170Y000570D01*
X016247Y000647D01*
X016247Y000954D02*
X016170Y001030D01*
X016017Y001030D01*
X015940Y000954D01*
X015940Y000647D01*
X019564Y000550D02*
X019564Y000320D01*
X020025Y000320D01*
X019871Y000320D02*
X019871Y000550D01*
X019795Y000627D01*
X019641Y000627D01*
X019564Y000550D01*
X019871Y000473D02*
X020025Y000627D01*
X020189Y000627D02*
X020189Y000320D01*
X020650Y000320D01*
X020420Y000320D02*
X020420Y000473D01*
X020496Y000780D02*
X020343Y000934D01*
X020343Y001011D01*
X020343Y001164D02*
X020343Y001241D01*
X020650Y001241D01*
X020650Y001164D02*
X020650Y001318D01*
X020573Y001471D02*
X020420Y001471D01*
X020343Y001548D01*
X020343Y001778D01*
X020189Y001778D02*
X020650Y001778D01*
X020650Y001548D01*
X020573Y001471D01*
X020905Y001366D02*
X021136Y001366D01*
X021212Y001443D01*
X021136Y001519D01*
X021212Y001596D01*
X021136Y001673D01*
X020905Y001673D01*
X021136Y001826D02*
X021136Y001903D01*
X021212Y001903D01*
X021212Y001826D01*
X021136Y001826D01*
X021212Y002056D02*
X021212Y002287D01*
X021136Y002363D01*
X020982Y002363D01*
X020905Y002287D01*
X020905Y002056D01*
X021366Y002056D01*
X021212Y002517D02*
X021212Y002747D01*
X021136Y002824D01*
X020982Y002824D01*
X020905Y002747D01*
X020905Y002517D01*
X020752Y002517D02*
X021212Y002517D01*
X020982Y002977D02*
X020982Y003284D01*
X020905Y003438D02*
X020905Y003514D01*
X020982Y003591D01*
X020905Y003668D01*
X020982Y003744D01*
X021212Y003744D01*
X021212Y003591D02*
X020982Y003591D01*
X020905Y003438D02*
X021212Y003438D01*
X021212Y003207D02*
X020752Y003207D01*
X020982Y002977D01*
X020650Y002929D02*
X020266Y002929D01*
X020189Y003006D01*
X020343Y003159D02*
X020343Y003236D01*
X020650Y003236D01*
X020650Y003159D02*
X020650Y003313D01*
X020650Y003466D02*
X020343Y003466D01*
X020496Y003466D02*
X020343Y003619D01*
X020343Y003696D01*
X020420Y003850D02*
X020343Y003926D01*
X020343Y004080D01*
X020420Y004157D01*
X020496Y004157D01*
X020496Y003850D01*
X020420Y003850D02*
X020573Y003850D01*
X020650Y003926D01*
X020650Y004080D01*
X020905Y004128D02*
X020905Y004358D01*
X020982Y004435D01*
X021212Y004435D01*
X021212Y004589D02*
X021212Y004742D01*
X021212Y004665D02*
X020752Y004665D01*
X020752Y004589D01*
X020905Y004128D02*
X021212Y004128D01*
X021212Y003975D02*
X021212Y003898D01*
X021136Y003898D01*
X021136Y003975D01*
X021212Y003975D01*
X020420Y003006D02*
X020420Y002852D01*
X020420Y002699D02*
X020496Y002699D01*
X020496Y002392D01*
X020420Y002392D02*
X020573Y002392D01*
X020650Y002468D01*
X020650Y002622D01*
X020420Y002699D02*
X020343Y002622D01*
X020343Y002468D01*
X020420Y002392D01*
X020343Y002238D02*
X020343Y002008D01*
X020420Y001931D01*
X020573Y001931D01*
X020650Y002008D01*
X020650Y002238D01*
X020727Y002238D02*
X020343Y002238D01*
X020025Y002238D02*
X020025Y001931D01*
X020025Y001778D02*
X019948Y001778D01*
X019948Y001701D01*
X020025Y001701D01*
X020025Y001778D01*
X020025Y002085D02*
X019564Y002085D01*
X019718Y001931D01*
X019718Y001548D02*
X020025Y001394D01*
X019718Y001241D01*
X019795Y001087D02*
X019871Y001087D01*
X019871Y000780D01*
X019795Y000780D02*
X019718Y000857D01*
X019718Y001011D01*
X019795Y001087D01*
X020025Y001011D02*
X020025Y000857D01*
X019948Y000780D01*
X019795Y000780D01*
X020343Y000780D02*
X020650Y000780D01*
X020905Y000752D02*
X021136Y000752D01*
X021212Y000675D01*
X021136Y000598D01*
X021212Y000522D01*
X021136Y000445D01*
X020905Y000445D01*
X020905Y000905D02*
X021136Y000905D01*
X021212Y000982D01*
X021136Y001059D01*
X021212Y001136D01*
X021136Y001212D01*
X020905Y001212D01*
X020189Y001241D02*
X020113Y001241D01*
X020803Y002085D02*
X020803Y002162D01*
X020727Y002238D01*
X020189Y003236D02*
X020113Y003236D01*
X019122Y004633D02*
X018815Y004633D01*
X018968Y004633D02*
X018968Y005093D01*
X018815Y004939D01*
X018752Y005633D02*
X019059Y005939D01*
X019059Y006016D01*
X018982Y006093D01*
X018829Y006093D01*
X018752Y006016D01*
X018752Y005633D02*
X019059Y005633D01*
X018982Y006633D02*
X018829Y006633D01*
X018752Y006709D01*
X018906Y006863D02*
X018982Y006863D01*
X019059Y006786D01*
X019059Y006709D01*
X018982Y006633D01*
X018982Y006863D02*
X019059Y006939D01*
X019059Y007016D01*
X018982Y007093D01*
X018829Y007093D01*
X018752Y007016D01*
X017809Y008383D02*
X017502Y008383D01*
X017502Y008689D02*
X017809Y008689D01*
X017962Y008536D01*
X017809Y008383D01*
X017886Y008843D02*
X017579Y008843D01*
X017502Y008920D01*
X017502Y009073D01*
X017579Y009150D01*
X017579Y009303D02*
X017886Y009303D01*
X017962Y009380D01*
X017962Y009533D01*
X017886Y009610D01*
X017579Y009610D02*
X017502Y009533D01*
X017502Y009380D01*
X017579Y009303D01*
X017886Y009150D02*
X017962Y009073D01*
X017962Y008920D01*
X017886Y008843D01*
X017780Y010945D02*
X017627Y011098D01*
X018087Y011098D01*
X018087Y010945D02*
X018087Y011252D01*
X018087Y012945D02*
X017780Y013252D01*
X017704Y013252D01*
X017627Y013175D01*
X017627Y013022D01*
X017704Y012945D01*
X018087Y012945D02*
X018087Y013252D01*
X017091Y015008D02*
X016861Y015008D01*
X016861Y015468D01*
X017091Y015468D01*
X017167Y015391D01*
X017167Y015084D01*
X017091Y015008D01*
X016707Y015008D02*
X016707Y015468D01*
X016400Y015468D02*
X016707Y015008D01*
X016400Y015008D02*
X016400Y015468D01*
X016247Y015391D02*
X016170Y015468D01*
X016017Y015468D01*
X015940Y015391D01*
X015940Y015084D01*
X016017Y015008D01*
X016170Y015008D01*
X016247Y015084D01*
X016247Y015238D01*
X016093Y015238D01*
X016065Y015695D02*
X016065Y016155D01*
X016295Y016155D01*
X016372Y016079D01*
X016372Y015925D01*
X016295Y015848D01*
X016065Y015848D01*
X016218Y015848D02*
X016372Y015695D01*
X016525Y015695D02*
X016832Y016155D01*
X016770Y016383D02*
X016463Y016843D01*
X016309Y016843D02*
X016002Y016843D01*
X016156Y016843D02*
X016156Y016383D01*
X016463Y016383D02*
X016770Y016843D01*
X016525Y016155D02*
X016832Y015695D01*
X017564Y015300D02*
X017564Y015147D01*
X017641Y015070D01*
X017795Y015223D02*
X017795Y015300D01*
X017871Y015377D01*
X017948Y015377D01*
X018025Y015300D01*
X018025Y015147D01*
X017948Y015070D01*
X017795Y015300D02*
X017718Y015377D01*
X017641Y015377D01*
X017564Y015300D01*
X014786Y016133D02*
X014479Y016133D01*
X014786Y016439D01*
X014786Y016516D01*
X014710Y016593D01*
X014556Y016593D01*
X014479Y016516D01*
X014172Y016593D02*
X014172Y016133D01*
X014019Y016133D02*
X014326Y016133D01*
X014019Y016439D02*
X014172Y016593D01*
X013866Y016363D02*
X013559Y016363D01*
X013405Y016363D02*
X013405Y016209D01*
X013328Y016133D01*
X013098Y016133D01*
X013098Y015979D02*
X013098Y016439D01*
X013328Y016439D01*
X013405Y016363D01*
X012945Y016439D02*
X012715Y016439D01*
X012638Y016363D01*
X012715Y016286D01*
X012868Y016286D01*
X012945Y016209D01*
X012868Y016133D01*
X012638Y016133D01*
X012484Y016286D02*
X012484Y016363D01*
X012408Y016439D01*
X012254Y016439D01*
X012177Y016363D01*
X012177Y016209D01*
X012254Y016133D01*
X012408Y016133D01*
X012484Y016286D02*
X012177Y016286D01*
X006886Y015451D02*
X006579Y015451D01*
X006732Y015604D02*
X006732Y015297D01*
X006261Y014173D02*
X005954Y014173D01*
X005877Y014096D01*
X005877Y013866D01*
X006337Y013866D01*
X006337Y014096D01*
X006261Y014173D01*
X006337Y013712D02*
X005877Y013712D01*
X005877Y013405D02*
X006337Y013712D01*
X006337Y013405D02*
X005877Y013405D01*
X005954Y013252D02*
X005877Y013175D01*
X005877Y013022D01*
X005954Y012945D01*
X006261Y012945D01*
X006337Y013022D01*
X006337Y013175D01*
X006261Y013252D01*
X006107Y013252D01*
X006107Y013098D01*
X005954Y012042D02*
X005877Y011965D01*
X005877Y011811D01*
X005954Y011735D01*
X006261Y011735D01*
X006337Y011811D01*
X006337Y011965D01*
X006261Y012042D01*
X006261Y011581D02*
X006337Y011504D01*
X006337Y011351D01*
X006261Y011274D01*
X005954Y011274D01*
X005877Y011351D01*
X005877Y011504D01*
X005954Y011581D01*
X005877Y011121D02*
X006184Y011121D01*
X006337Y010967D01*
X006184Y010814D01*
X005877Y010814D01*
X005954Y010110D02*
X005877Y010033D01*
X005877Y009803D01*
X006337Y009803D01*
X006337Y010033D01*
X006261Y010110D01*
X005954Y010110D01*
X005877Y009650D02*
X006337Y009650D01*
X005877Y009343D01*
X006337Y009343D01*
X006261Y009189D02*
X006107Y009189D01*
X006107Y009036D01*
X005954Y009189D02*
X005877Y009113D01*
X005877Y008959D01*
X005954Y008883D01*
X006261Y008883D01*
X006337Y008959D01*
X006337Y009113D01*
X006261Y009189D01*
X006261Y008229D02*
X006337Y008152D01*
X006337Y007999D01*
X006261Y007922D01*
X005954Y007922D01*
X005877Y007999D01*
X005877Y008152D01*
X005954Y008229D01*
X005954Y007769D02*
X005877Y007692D01*
X005877Y007538D01*
X005954Y007462D01*
X006261Y007462D01*
X006337Y007538D01*
X006337Y007692D01*
X006261Y007769D01*
X006184Y007308D02*
X005877Y007308D01*
X005877Y007001D02*
X006184Y007001D01*
X006337Y007155D01*
X006184Y007308D01*
X006795Y017797D02*
X006795Y018104D01*
D12*
X006857Y017738D02*
X006857Y017175D01*
X006857Y016738D02*
X006857Y015863D01*
X006545Y016425D02*
X006520Y016457D01*
X006498Y016491D01*
X006479Y016527D01*
X006463Y016565D01*
X006452Y016604D01*
X006444Y016645D01*
X006440Y016685D01*
X006439Y016726D01*
X006443Y016767D01*
X006451Y016807D01*
X006462Y016846D01*
X006477Y016884D01*
X006496Y016920D01*
X006518Y016955D01*
X006543Y016987D01*
X006572Y017016D01*
X006603Y017043D01*
X006636Y017067D01*
X006671Y017087D01*
X006708Y017104D01*
X006747Y017117D01*
X006787Y017127D01*
X006827Y017132D01*
X006868Y017134D01*
X006909Y017132D01*
X006949Y017126D01*
X006989Y017116D01*
X007027Y017102D01*
X007065Y017085D01*
X007100Y017064D01*
X007133Y017040D01*
X007163Y017013D01*
X007191Y016984D01*
X007216Y016951D01*
X007238Y016917D01*
X007256Y016880D01*
X007271Y016842D01*
X007282Y016803D01*
X007289Y016762D01*
X007293Y016722D01*
X007292Y016681D01*
X007288Y016640D01*
X007279Y016600D01*
X007267Y016561D01*
X007252Y016524D01*
X007232Y016488D01*
X015732Y017050D02*
X015732Y014863D01*
X016857Y014863D01*
X016857Y013363D01*
X017107Y013113D01*
X016857Y014863D02*
X017482Y014863D01*
X017482Y017050D01*
X015732Y017050D01*
X017420Y004363D02*
X017420Y003363D01*
X020545Y003363D01*
X020545Y004363D01*
X017420Y004363D01*
X003957Y002413D02*
X003957Y002113D01*
X003957Y001813D01*
X003757Y001813D02*
X003757Y002113D01*
X003757Y002413D01*
X003757Y001413D02*
X003757Y001113D01*
X003757Y000813D01*
X003957Y000813D02*
X003957Y001113D01*
X003957Y001413D01*
D13*
X003957Y001113D02*
X004007Y001113D01*
X003757Y001113D02*
X003707Y001113D01*
X003007Y001613D02*
X002990Y001611D01*
X002973Y001607D01*
X002957Y001600D01*
X002943Y001590D01*
X002930Y001577D01*
X002920Y001563D01*
X002913Y001547D01*
X002909Y001530D01*
X002907Y001513D01*
X002907Y000713D01*
X002909Y000696D01*
X002913Y000679D01*
X002920Y000663D01*
X002930Y000649D01*
X002943Y000636D01*
X002957Y000626D01*
X002973Y000619D01*
X002990Y000615D01*
X003007Y000613D01*
X004707Y000613D01*
X004724Y000615D01*
X004741Y000619D01*
X004757Y000626D01*
X004771Y000636D01*
X004784Y000649D01*
X004794Y000663D01*
X004801Y000679D01*
X004805Y000696D01*
X004807Y000713D01*
X004807Y000813D01*
X004807Y001013D02*
X004807Y001213D01*
X004757Y001113D02*
X004957Y001113D01*
X004807Y001413D02*
X004807Y001513D01*
X004805Y001530D01*
X004801Y001547D01*
X004794Y001563D01*
X004784Y001577D01*
X004771Y001590D01*
X004757Y001600D01*
X004741Y001607D01*
X004724Y001611D01*
X004707Y001613D01*
X003007Y001613D01*
X004707Y001613D01*
X004724Y001615D01*
X004741Y001619D01*
X004757Y001626D01*
X004771Y001636D01*
X004784Y001649D01*
X004794Y001663D01*
X004801Y001679D01*
X004805Y001696D01*
X004807Y001713D01*
X004807Y001813D01*
X004807Y002013D02*
X004807Y002213D01*
X004757Y002113D02*
X004957Y002113D01*
X004807Y002413D02*
X004807Y002513D01*
X004805Y002530D01*
X004801Y002547D01*
X004794Y002563D01*
X004784Y002577D01*
X004771Y002590D01*
X004757Y002600D01*
X004741Y002607D01*
X004724Y002611D01*
X004707Y002613D01*
X003007Y002613D01*
X002990Y002611D01*
X002973Y002607D01*
X002957Y002600D01*
X002943Y002590D01*
X002930Y002577D01*
X002920Y002563D01*
X002913Y002547D01*
X002909Y002530D01*
X002907Y002513D01*
X002907Y001713D01*
X002909Y001696D01*
X002913Y001679D01*
X002920Y001663D01*
X002930Y001649D01*
X002943Y001636D01*
X002957Y001626D01*
X002973Y001619D01*
X002990Y001615D01*
X003007Y001613D01*
X003707Y002113D02*
X003757Y002113D01*
X003957Y002113D02*
X004007Y002113D01*
X004957Y002613D02*
X005707Y002613D01*
X005724Y002611D01*
X005741Y002607D01*
X005757Y002600D01*
X005771Y002590D01*
X005784Y002577D01*
X005794Y002563D01*
X005801Y002547D01*
X005805Y002530D01*
X005807Y002513D01*
X005807Y001713D01*
X005805Y001696D01*
X005801Y001679D01*
X005794Y001663D01*
X005784Y001649D01*
X005771Y001636D01*
X005757Y001626D01*
X005741Y001619D01*
X005724Y001615D01*
X005707Y001613D01*
X004957Y001613D01*
X005707Y001613D01*
X005724Y001611D01*
X005741Y001607D01*
X005757Y001600D01*
X005771Y001590D01*
X005784Y001577D01*
X005794Y001563D01*
X005801Y001547D01*
X005805Y001530D01*
X005807Y001513D01*
X005807Y000713D01*
X005805Y000696D01*
X005801Y000679D01*
X005794Y000663D01*
X005784Y000649D01*
X005771Y000636D01*
X005757Y000626D01*
X005741Y000619D01*
X005724Y000615D01*
X005707Y000613D01*
X004957Y000613D01*
X007257Y002663D02*
X007457Y002663D01*
X007357Y002763D02*
X007357Y002563D01*
X006257Y003613D02*
X006259Y003679D01*
X006265Y003744D01*
X006275Y003809D01*
X006288Y003874D01*
X006306Y003937D01*
X006327Y004000D01*
X006352Y004060D01*
X006381Y004120D01*
X006413Y004177D01*
X006448Y004233D01*
X006487Y004286D01*
X006529Y004337D01*
X006573Y004385D01*
X006621Y004430D01*
X006671Y004473D01*
X006724Y004512D01*
X006779Y004549D01*
X006836Y004582D01*
X006895Y004611D01*
X006955Y004637D01*
X007017Y004659D01*
X007080Y004678D01*
X007144Y004692D01*
X007209Y004703D01*
X007275Y004710D01*
X007341Y004713D01*
X007406Y004712D01*
X007472Y004707D01*
X007537Y004698D01*
X007602Y004685D01*
X007665Y004669D01*
X007728Y004649D01*
X007789Y004624D01*
X007849Y004597D01*
X007907Y004566D01*
X007963Y004531D01*
X008017Y004493D01*
X008068Y004452D01*
X008117Y004408D01*
X008163Y004361D01*
X008207Y004312D01*
X008247Y004260D01*
X008284Y004205D01*
X008318Y004149D01*
X008348Y004090D01*
X008375Y004030D01*
X008398Y003969D01*
X008417Y003906D01*
X008433Y003842D01*
X008445Y003777D01*
X008453Y003712D01*
X008457Y003646D01*
X008457Y003580D01*
X008453Y003514D01*
X008445Y003449D01*
X008433Y003384D01*
X008417Y003320D01*
X008398Y003257D01*
X008375Y003196D01*
X008348Y003136D01*
X008318Y003077D01*
X008284Y003021D01*
X008247Y002966D01*
X008207Y002914D01*
X008163Y002865D01*
X008117Y002818D01*
X008068Y002774D01*
X008017Y002733D01*
X007963Y002695D01*
X007907Y002660D01*
X007849Y002629D01*
X007789Y002602D01*
X007728Y002577D01*
X007665Y002557D01*
X007602Y002541D01*
X007537Y002528D01*
X007472Y002519D01*
X007406Y002514D01*
X007341Y002513D01*
X007275Y002516D01*
X007209Y002523D01*
X007144Y002534D01*
X007080Y002548D01*
X007017Y002567D01*
X006955Y002589D01*
X006895Y002615D01*
X006836Y002644D01*
X006779Y002677D01*
X006724Y002714D01*
X006671Y002753D01*
X006621Y002796D01*
X006573Y002841D01*
X006529Y002889D01*
X006487Y002940D01*
X006448Y002993D01*
X006413Y003049D01*
X006381Y003106D01*
X006352Y003166D01*
X006327Y003226D01*
X006306Y003289D01*
X006288Y003352D01*
X006275Y003417D01*
X006265Y003482D01*
X006259Y003547D01*
X006257Y003613D01*
X005507Y006613D02*
X004557Y006613D01*
X004557Y007263D01*
X004557Y006613D02*
X001957Y006613D01*
X001857Y006613D01*
X001857Y010613D01*
X001957Y010613D01*
X004557Y010613D01*
X004557Y009963D01*
X004557Y009263D02*
X004557Y007963D01*
X005507Y006613D02*
X005507Y010613D01*
X004557Y010613D01*
X005507Y010613D01*
X005507Y014613D01*
X004557Y014613D01*
X001957Y014613D01*
X001857Y014613D01*
X001857Y010613D01*
X001957Y010613D01*
X001957Y006613D01*
X002287Y007613D02*
X002289Y007641D01*
X002295Y007668D01*
X002304Y007694D01*
X002317Y007719D01*
X002334Y007742D01*
X002353Y007762D01*
X002375Y007779D01*
X002399Y007793D01*
X002425Y007803D01*
X002452Y007810D01*
X002480Y007813D01*
X002508Y007812D01*
X002535Y007807D01*
X002562Y007798D01*
X002587Y007786D01*
X002610Y007771D01*
X002631Y007752D01*
X002649Y007731D01*
X002664Y007707D01*
X002675Y007681D01*
X002683Y007655D01*
X002687Y007627D01*
X002687Y007599D01*
X002683Y007571D01*
X002675Y007545D01*
X002664Y007519D01*
X002649Y007495D01*
X002631Y007474D01*
X002610Y007455D01*
X002587Y007440D01*
X002562Y007428D01*
X002535Y007419D01*
X002508Y007414D01*
X002480Y007413D01*
X002452Y007416D01*
X002425Y007423D01*
X002399Y007433D01*
X002375Y007447D01*
X002353Y007464D01*
X002334Y007484D01*
X002317Y007507D01*
X002304Y007532D01*
X002295Y007558D01*
X002289Y007585D01*
X002287Y007613D01*
X002287Y009613D02*
X002289Y009641D01*
X002295Y009668D01*
X002304Y009694D01*
X002317Y009719D01*
X002334Y009742D01*
X002353Y009762D01*
X002375Y009779D01*
X002399Y009793D01*
X002425Y009803D01*
X002452Y009810D01*
X002480Y009813D01*
X002508Y009812D01*
X002535Y009807D01*
X002562Y009798D01*
X002587Y009786D01*
X002610Y009771D01*
X002631Y009752D01*
X002649Y009731D01*
X002664Y009707D01*
X002675Y009681D01*
X002683Y009655D01*
X002687Y009627D01*
X002687Y009599D01*
X002683Y009571D01*
X002675Y009545D01*
X002664Y009519D01*
X002649Y009495D01*
X002631Y009474D01*
X002610Y009455D01*
X002587Y009440D01*
X002562Y009428D01*
X002535Y009419D01*
X002508Y009414D01*
X002480Y009413D01*
X002452Y009416D01*
X002425Y009423D01*
X002399Y009433D01*
X002375Y009447D01*
X002353Y009464D01*
X002334Y009484D01*
X002317Y009507D01*
X002304Y009532D01*
X002295Y009558D01*
X002289Y009585D01*
X002287Y009613D01*
X001957Y010613D02*
X004557Y010613D01*
X004557Y011263D01*
X004557Y011963D02*
X004557Y013263D01*
X004557Y013963D02*
X004557Y014613D01*
X002287Y013613D02*
X002289Y013641D01*
X002295Y013668D01*
X002304Y013694D01*
X002317Y013719D01*
X002334Y013742D01*
X002353Y013762D01*
X002375Y013779D01*
X002399Y013793D01*
X002425Y013803D01*
X002452Y013810D01*
X002480Y013813D01*
X002508Y013812D01*
X002535Y013807D01*
X002562Y013798D01*
X002587Y013786D01*
X002610Y013771D01*
X002631Y013752D01*
X002649Y013731D01*
X002664Y013707D01*
X002675Y013681D01*
X002683Y013655D01*
X002687Y013627D01*
X002687Y013599D01*
X002683Y013571D01*
X002675Y013545D01*
X002664Y013519D01*
X002649Y013495D01*
X002631Y013474D01*
X002610Y013455D01*
X002587Y013440D01*
X002562Y013428D01*
X002535Y013419D01*
X002508Y013414D01*
X002480Y013413D01*
X002452Y013416D01*
X002425Y013423D01*
X002399Y013433D01*
X002375Y013447D01*
X002353Y013464D01*
X002334Y013484D01*
X002317Y013507D01*
X002304Y013532D01*
X002295Y013558D01*
X002289Y013585D01*
X002287Y013613D01*
X001957Y014613D02*
X001957Y010613D01*
X002287Y011613D02*
X002289Y011641D01*
X002295Y011668D01*
X002304Y011694D01*
X002317Y011719D01*
X002334Y011742D01*
X002353Y011762D01*
X002375Y011779D01*
X002399Y011793D01*
X002425Y011803D01*
X002452Y011810D01*
X002480Y011813D01*
X002508Y011812D01*
X002535Y011807D01*
X002562Y011798D01*
X002587Y011786D01*
X002610Y011771D01*
X002631Y011752D01*
X002649Y011731D01*
X002664Y011707D01*
X002675Y011681D01*
X002683Y011655D01*
X002687Y011627D01*
X002687Y011599D01*
X002683Y011571D01*
X002675Y011545D01*
X002664Y011519D01*
X002649Y011495D01*
X002631Y011474D01*
X002610Y011455D01*
X002587Y011440D01*
X002562Y011428D01*
X002535Y011419D01*
X002508Y011414D01*
X002480Y011413D01*
X002452Y011416D01*
X002425Y011423D01*
X002399Y011433D01*
X002375Y011447D01*
X002353Y011464D01*
X002334Y011484D01*
X002317Y011507D01*
X002304Y011532D01*
X002295Y011558D01*
X002289Y011585D01*
X002287Y011613D01*
X007507Y018163D02*
X007407Y018263D01*
X007357Y019413D01*
X007507Y018163D02*
X011207Y018163D01*
X011307Y018263D01*
X011357Y019413D01*
X012357Y019413D02*
X012407Y018263D01*
X012507Y018163D01*
X016207Y018163D01*
X016307Y018263D01*
X016357Y019413D01*
X017357Y019413D02*
X017407Y018263D01*
X017507Y018163D01*
X021207Y018163D01*
X021307Y018263D01*
X021357Y019413D01*
X021757Y016113D02*
X019157Y016113D01*
X019157Y015463D01*
X019157Y014763D02*
X019157Y013463D01*
X019157Y012763D02*
X019157Y012113D01*
X019157Y011463D01*
X019157Y012113D02*
X021857Y012113D01*
X021857Y016113D01*
X021757Y016113D01*
X021757Y008113D01*
X019157Y008113D01*
X019157Y008763D01*
X019157Y009463D02*
X019157Y010763D01*
X017857Y010863D02*
X017857Y010363D01*
X017607Y010113D01*
X017107Y010113D01*
X016857Y010363D01*
X016857Y010863D01*
X017107Y011113D01*
X016857Y011363D01*
X016857Y011863D01*
X017107Y012113D01*
X016857Y012363D01*
X016857Y012863D01*
X017107Y013113D01*
X017607Y013113D01*
X017857Y012863D01*
X017857Y012363D01*
X017607Y012113D01*
X017857Y011863D01*
X017857Y011363D01*
X017607Y011113D01*
X017857Y010863D01*
X018207Y008113D02*
X019157Y008113D01*
X019607Y007363D02*
X019357Y007113D01*
X019357Y006613D01*
X019607Y006363D01*
X019357Y006113D01*
X019357Y005613D01*
X019607Y005363D01*
X020107Y005363D01*
X020357Y005613D01*
X020357Y006113D01*
X020107Y006363D01*
X019607Y006363D01*
X020107Y006363D02*
X020357Y006613D01*
X020357Y007113D01*
X020107Y007363D01*
X019607Y007363D01*
X018207Y008113D02*
X018207Y016113D01*
X019157Y016113D01*
X021027Y015113D02*
X021029Y015141D01*
X021035Y015168D01*
X021044Y015194D01*
X021057Y015219D01*
X021074Y015242D01*
X021093Y015262D01*
X021115Y015279D01*
X021139Y015293D01*
X021165Y015303D01*
X021192Y015310D01*
X021220Y015313D01*
X021248Y015312D01*
X021275Y015307D01*
X021302Y015298D01*
X021327Y015286D01*
X021350Y015271D01*
X021371Y015252D01*
X021389Y015231D01*
X021404Y015207D01*
X021415Y015181D01*
X021423Y015155D01*
X021427Y015127D01*
X021427Y015099D01*
X021423Y015071D01*
X021415Y015045D01*
X021404Y015019D01*
X021389Y014995D01*
X021371Y014974D01*
X021350Y014955D01*
X021327Y014940D01*
X021302Y014928D01*
X021275Y014919D01*
X021248Y014914D01*
X021220Y014913D01*
X021192Y014916D01*
X021165Y014923D01*
X021139Y014933D01*
X021115Y014947D01*
X021093Y014964D01*
X021074Y014984D01*
X021057Y015007D01*
X021044Y015032D01*
X021035Y015058D01*
X021029Y015085D01*
X021027Y015113D01*
X021027Y013113D02*
X021029Y013141D01*
X021035Y013168D01*
X021044Y013194D01*
X021057Y013219D01*
X021074Y013242D01*
X021093Y013262D01*
X021115Y013279D01*
X021139Y013293D01*
X021165Y013303D01*
X021192Y013310D01*
X021220Y013313D01*
X021248Y013312D01*
X021275Y013307D01*
X021302Y013298D01*
X021327Y013286D01*
X021350Y013271D01*
X021371Y013252D01*
X021389Y013231D01*
X021404Y013207D01*
X021415Y013181D01*
X021423Y013155D01*
X021427Y013127D01*
X021427Y013099D01*
X021423Y013071D01*
X021415Y013045D01*
X021404Y013019D01*
X021389Y012995D01*
X021371Y012974D01*
X021350Y012955D01*
X021327Y012940D01*
X021302Y012928D01*
X021275Y012919D01*
X021248Y012914D01*
X021220Y012913D01*
X021192Y012916D01*
X021165Y012923D01*
X021139Y012933D01*
X021115Y012947D01*
X021093Y012964D01*
X021074Y012984D01*
X021057Y013007D01*
X021044Y013032D01*
X021035Y013058D01*
X021029Y013085D01*
X021027Y013113D01*
X021857Y012113D02*
X021857Y008113D01*
X021757Y008113D01*
X021027Y009113D02*
X021029Y009141D01*
X021035Y009168D01*
X021044Y009194D01*
X021057Y009219D01*
X021074Y009242D01*
X021093Y009262D01*
X021115Y009279D01*
X021139Y009293D01*
X021165Y009303D01*
X021192Y009310D01*
X021220Y009313D01*
X021248Y009312D01*
X021275Y009307D01*
X021302Y009298D01*
X021327Y009286D01*
X021350Y009271D01*
X021371Y009252D01*
X021389Y009231D01*
X021404Y009207D01*
X021415Y009181D01*
X021423Y009155D01*
X021427Y009127D01*
X021427Y009099D01*
X021423Y009071D01*
X021415Y009045D01*
X021404Y009019D01*
X021389Y008995D01*
X021371Y008974D01*
X021350Y008955D01*
X021327Y008940D01*
X021302Y008928D01*
X021275Y008919D01*
X021248Y008914D01*
X021220Y008913D01*
X021192Y008916D01*
X021165Y008923D01*
X021139Y008933D01*
X021115Y008947D01*
X021093Y008964D01*
X021074Y008984D01*
X021057Y009007D01*
X021044Y009032D01*
X021035Y009058D01*
X021029Y009085D01*
X021027Y009113D01*
X021027Y011113D02*
X021029Y011141D01*
X021035Y011168D01*
X021044Y011194D01*
X021057Y011219D01*
X021074Y011242D01*
X021093Y011262D01*
X021115Y011279D01*
X021139Y011293D01*
X021165Y011303D01*
X021192Y011310D01*
X021220Y011313D01*
X021248Y011312D01*
X021275Y011307D01*
X021302Y011298D01*
X021327Y011286D01*
X021350Y011271D01*
X021371Y011252D01*
X021389Y011231D01*
X021404Y011207D01*
X021415Y011181D01*
X021423Y011155D01*
X021427Y011127D01*
X021427Y011099D01*
X021423Y011071D01*
X021415Y011045D01*
X021404Y011019D01*
X021389Y010995D01*
X021371Y010974D01*
X021350Y010955D01*
X021327Y010940D01*
X021302Y010928D01*
X021275Y010919D01*
X021248Y010914D01*
X021220Y010913D01*
X021192Y010916D01*
X021165Y010923D01*
X021139Y010933D01*
X021115Y010947D01*
X021093Y010964D01*
X021074Y010984D01*
X021057Y011007D01*
X021044Y011032D01*
X021035Y011058D01*
X021029Y011085D01*
X021027Y011113D01*
X020107Y005363D02*
X020357Y005113D01*
X020357Y004613D01*
X020107Y004363D01*
X020357Y004113D01*
X020357Y003613D01*
X020107Y003363D01*
X019607Y003363D01*
X019357Y003613D01*
X019357Y004113D01*
X019607Y004363D01*
X019357Y004613D01*
X019357Y005113D01*
X019607Y005363D01*
X019607Y004363D02*
X020107Y004363D01*
X018607Y004113D02*
X018607Y003613D01*
X018357Y003363D01*
X018607Y003113D01*
X018607Y002613D01*
X018357Y002363D01*
X017857Y002363D01*
X017607Y002613D01*
X017607Y003113D01*
X017857Y003363D01*
X017607Y003613D01*
X017607Y004113D01*
X017857Y004363D01*
X018357Y004363D01*
X018607Y004113D01*
X018357Y003363D02*
X017857Y003363D01*
X017857Y002363D02*
X017607Y002113D01*
X017607Y001613D01*
X017857Y001363D01*
X017607Y001113D01*
X017607Y000613D01*
X017857Y000363D01*
X018357Y000363D01*
X018607Y000613D01*
X018607Y001113D01*
X018357Y001363D01*
X017857Y001363D01*
X018357Y001363D02*
X018607Y001613D01*
X018607Y002113D01*
X018357Y002363D01*
X014257Y002663D02*
X014257Y003563D01*
X014257Y004613D02*
X014257Y005113D01*
X013857Y005513D01*
X013757Y005613D01*
X012557Y005613D01*
X012557Y005513D01*
X012257Y005513D01*
X012257Y005663D01*
X011457Y005663D01*
X011457Y005513D01*
X011157Y005513D01*
X011157Y005613D01*
X009957Y005613D01*
X009857Y005513D01*
X009457Y005113D01*
X009457Y004613D01*
X009857Y005513D02*
X011157Y005513D01*
X011457Y005513D02*
X012257Y005513D01*
X012557Y005513D02*
X013857Y005513D01*
X012607Y003863D02*
X012607Y002363D01*
X011107Y002363D01*
X011107Y003863D01*
X012607Y003863D01*
X010457Y003113D02*
X010459Y003188D01*
X010465Y003262D01*
X010475Y003336D01*
X010489Y003409D01*
X010506Y003481D01*
X010528Y003553D01*
X010553Y003623D01*
X010582Y003691D01*
X010615Y003759D01*
X010651Y003824D01*
X010690Y003887D01*
X010733Y003948D01*
X010779Y004007D01*
X010828Y004063D01*
X010880Y004116D01*
X010935Y004167D01*
X010992Y004214D01*
X011052Y004259D01*
X011114Y004300D01*
X011179Y004338D01*
X011245Y004372D01*
X011313Y004403D01*
X011382Y004430D01*
X011453Y004453D01*
X011525Y004473D01*
X011598Y004489D01*
X011671Y004501D01*
X011745Y004509D01*
X011820Y004513D01*
X011894Y004513D01*
X011969Y004509D01*
X012043Y004501D01*
X012116Y004489D01*
X012189Y004473D01*
X012261Y004453D01*
X012332Y004430D01*
X012401Y004403D01*
X012469Y004372D01*
X012535Y004338D01*
X012600Y004300D01*
X012662Y004259D01*
X012722Y004214D01*
X012779Y004167D01*
X012834Y004116D01*
X012886Y004063D01*
X012935Y004007D01*
X012981Y003948D01*
X013024Y003887D01*
X013063Y003824D01*
X013099Y003759D01*
X013132Y003691D01*
X013161Y003623D01*
X013186Y003553D01*
X013208Y003481D01*
X013225Y003409D01*
X013239Y003336D01*
X013249Y003262D01*
X013255Y003188D01*
X013257Y003113D01*
X013255Y003038D01*
X013249Y002964D01*
X013239Y002890D01*
X013225Y002817D01*
X013208Y002745D01*
X013186Y002673D01*
X013161Y002603D01*
X013132Y002535D01*
X013099Y002467D01*
X013063Y002402D01*
X013024Y002339D01*
X012981Y002278D01*
X012935Y002219D01*
X012886Y002163D01*
X012834Y002110D01*
X012779Y002059D01*
X012722Y002012D01*
X012662Y001967D01*
X012600Y001926D01*
X012535Y001888D01*
X012469Y001854D01*
X012401Y001823D01*
X012332Y001796D01*
X012261Y001773D01*
X012189Y001753D01*
X012116Y001737D01*
X012043Y001725D01*
X011969Y001717D01*
X011894Y001713D01*
X011820Y001713D01*
X011745Y001717D01*
X011671Y001725D01*
X011598Y001737D01*
X011525Y001753D01*
X011453Y001773D01*
X011382Y001796D01*
X011313Y001823D01*
X011245Y001854D01*
X011179Y001888D01*
X011114Y001926D01*
X011052Y001967D01*
X010992Y002012D01*
X010935Y002059D01*
X010880Y002110D01*
X010828Y002163D01*
X010779Y002219D01*
X010733Y002278D01*
X010690Y002339D01*
X010651Y002402D01*
X010615Y002467D01*
X010582Y002535D01*
X010553Y002603D01*
X010528Y002673D01*
X010506Y002745D01*
X010489Y002817D01*
X010475Y002890D01*
X010465Y002964D01*
X010459Y003038D01*
X010457Y003113D01*
X010357Y003513D02*
X010357Y002713D01*
X010457Y002613D01*
X010357Y002513D01*
X010357Y001713D01*
X010457Y001613D01*
X011257Y001613D01*
X011357Y001713D01*
X011357Y002513D01*
X011257Y002613D01*
X011357Y002713D01*
X011357Y003513D01*
X011257Y003613D01*
X010457Y003613D01*
X010357Y003513D01*
X009457Y003563D02*
X009457Y002663D01*
X009457Y001613D02*
X009457Y001113D01*
X009857Y000713D01*
X009957Y000613D01*
X011157Y000613D01*
X011157Y000713D01*
X011457Y000713D01*
X012257Y000713D01*
X012557Y000713D01*
X013857Y000713D01*
X013757Y000613D01*
X012557Y000613D01*
X012557Y000713D01*
X012257Y000713D02*
X012257Y000563D01*
X011457Y000563D01*
X011457Y000713D01*
X011157Y000713D02*
X009857Y000713D01*
X013857Y000713D02*
X014257Y001113D01*
X014257Y001613D01*
X012966Y013910D02*
X012746Y013910D01*
X012672Y013984D01*
X012746Y014057D01*
X012966Y014057D01*
X012966Y014130D02*
X012966Y013910D01*
X012966Y014130D02*
X012892Y014204D01*
X012746Y014204D01*
X012505Y014130D02*
X012505Y013910D01*
X012505Y014130D02*
X012432Y014204D01*
X012212Y014204D01*
X012212Y013910D01*
X012045Y013910D02*
X012045Y014130D01*
X011972Y014204D01*
X011751Y014204D01*
X011751Y013910D01*
X011585Y014057D02*
X011291Y014057D01*
X011291Y013984D02*
X011291Y014130D01*
X011364Y014204D01*
X011511Y014204D01*
X011585Y014130D01*
X011585Y014057D01*
X011511Y013910D02*
X011364Y013910D01*
X011291Y013984D01*
X011131Y013910D02*
X011057Y013984D01*
X011057Y014277D01*
X010984Y014204D02*
X011131Y014204D01*
X010817Y014130D02*
X010817Y013910D01*
X010817Y014130D02*
X010744Y014204D01*
X010524Y014204D01*
X010524Y013910D01*
X010357Y013910D02*
X010357Y014204D01*
X010210Y014351D01*
X010063Y014204D01*
X010063Y013910D01*
X010063Y014130D02*
X010357Y014130D01*
D14*
X009245Y012910D02*
X009245Y007004D01*
X013969Y007004D01*
X013969Y012910D01*
X009245Y012910D01*
X008458Y015981D02*
X008458Y006532D01*
X014757Y006532D01*
X014757Y015981D01*
X008458Y015981D01*
X008143Y017508D02*
X007843Y017508D01*
X007993Y017508D02*
X007993Y017958D01*
X007843Y017808D01*
X007683Y017883D02*
X007683Y017583D01*
X007607Y017508D01*
X007457Y017508D01*
X007382Y017583D01*
X007382Y017883D01*
X007457Y017958D01*
X007607Y017958D01*
X007683Y017883D01*
X007532Y017658D02*
X007683Y017508D01*
X005873Y015801D02*
X000125Y015801D01*
X000125Y019345D01*
X005873Y019345D01*
X005873Y015801D01*
X005207Y011898D02*
X005282Y011823D01*
X005282Y011673D01*
X005207Y011598D01*
X005057Y011598D02*
X004982Y011748D01*
X004982Y011823D01*
X005057Y011898D01*
X005207Y011898D01*
X005057Y011598D02*
X004832Y011598D01*
X004832Y011898D01*
X004832Y011438D02*
X005282Y011138D01*
X005282Y011438D02*
X004832Y011138D01*
X004832Y007898D02*
X004907Y007748D01*
X005057Y007598D01*
X005057Y007823D01*
X005132Y007898D01*
X005207Y007898D01*
X005282Y007823D01*
X005282Y007673D01*
X005207Y007598D01*
X005057Y007598D01*
X004832Y007438D02*
X005282Y007138D01*
X005282Y007438D02*
X004832Y007138D01*
X007599Y005163D02*
X007599Y004863D01*
X007674Y004788D01*
X007824Y004788D01*
X007899Y004863D01*
X008059Y004863D02*
X008134Y004788D01*
X008285Y004788D01*
X008360Y004863D01*
X008360Y004938D01*
X008285Y005013D01*
X008210Y005013D01*
X008285Y005013D02*
X008360Y005088D01*
X008360Y005163D01*
X008285Y005238D01*
X008134Y005238D01*
X008059Y005163D01*
X007899Y005163D02*
X007824Y005238D01*
X007674Y005238D01*
X007599Y005163D01*
X009832Y004738D02*
X009982Y004888D01*
X009982Y004438D01*
X009832Y004438D02*
X010133Y004438D01*
X010057Y001738D02*
X010133Y001663D01*
X010133Y001588D01*
X010057Y001513D01*
X010133Y001438D01*
X010133Y001363D01*
X010057Y001288D01*
X009907Y001288D01*
X009832Y001363D01*
X009982Y001513D02*
X010057Y001513D01*
X010214Y001438D02*
X010364Y001438D01*
X010289Y001438D02*
X010289Y001063D01*
X010214Y000988D01*
X010139Y000988D01*
X010064Y001063D01*
X010524Y001138D02*
X010749Y001138D01*
X010824Y001213D01*
X010824Y001363D01*
X010749Y001438D01*
X010524Y001438D01*
X010524Y000988D01*
X010984Y000988D02*
X011285Y000988D01*
X011135Y000988D02*
X011135Y001438D01*
X010984Y001288D01*
X010057Y001738D02*
X009907Y001738D01*
X009832Y001663D01*
X006730Y001913D02*
X006430Y001913D01*
X006730Y002213D01*
X006730Y002288D01*
X006655Y002363D01*
X006505Y002363D01*
X006430Y002288D01*
X006270Y002288D02*
X006195Y002363D01*
X006045Y002363D01*
X005970Y002288D01*
X005970Y001988D01*
X006045Y001913D01*
X006195Y001913D01*
X006270Y001988D01*
X006257Y001300D02*
X006107Y001300D01*
X006032Y001225D01*
X006032Y000925D01*
X006107Y000850D01*
X006257Y000850D01*
X006333Y000925D01*
X006493Y000850D02*
X006793Y000850D01*
X006643Y000850D02*
X006643Y001300D01*
X006493Y001150D01*
X006333Y001225D02*
X006257Y001300D01*
X013482Y001513D02*
X013783Y001513D01*
X013707Y001288D02*
X013707Y001738D01*
X013482Y001513D01*
X013432Y004438D02*
X013733Y004738D01*
X013733Y004813D01*
X013657Y004888D01*
X013507Y004888D01*
X013432Y004813D01*
X013432Y004438D02*
X013733Y004438D01*
X014332Y005450D02*
X014257Y005525D01*
X014332Y005450D02*
X014482Y005450D01*
X014558Y005525D01*
X014558Y005600D01*
X014482Y005675D01*
X014332Y005675D01*
X014257Y005750D01*
X014257Y005825D01*
X014332Y005900D01*
X014482Y005900D01*
X014558Y005825D01*
X014718Y005750D02*
X014868Y005900D01*
X014868Y005450D01*
X014718Y005450D02*
X015018Y005450D01*
X016977Y004620D02*
X017052Y004545D01*
X017127Y004545D01*
X017202Y004620D01*
X017202Y004995D01*
X017127Y004995D02*
X017278Y004995D01*
X017438Y004995D02*
X017663Y004995D01*
X017738Y004920D01*
X017738Y004770D01*
X017663Y004695D01*
X017438Y004695D01*
X017438Y004545D02*
X017438Y004995D01*
X017898Y004920D02*
X017973Y004995D01*
X018123Y004995D01*
X018198Y004920D01*
X018198Y004845D01*
X018123Y004770D01*
X018198Y004695D01*
X018198Y004620D01*
X018123Y004545D01*
X017973Y004545D01*
X017898Y004620D01*
X018048Y004770D02*
X018123Y004770D01*
X018865Y007483D02*
X018940Y007483D01*
X019015Y007558D01*
X019015Y007933D01*
X018940Y007933D02*
X019090Y007933D01*
X019250Y007933D02*
X019475Y007933D01*
X019550Y007858D01*
X019550Y007708D01*
X019475Y007633D01*
X019250Y007633D01*
X019250Y007483D02*
X019250Y007933D01*
X019711Y007858D02*
X019786Y007933D01*
X019936Y007933D01*
X020011Y007858D01*
X020011Y007783D01*
X019711Y007483D01*
X020011Y007483D01*
X018865Y007483D02*
X018790Y007558D01*
X017582Y013177D02*
X017582Y013477D01*
X017582Y013327D02*
X017132Y013327D01*
X017282Y013177D01*
X018494Y014842D02*
X018945Y015142D01*
X018720Y015302D02*
X018720Y015602D01*
X018945Y015527D02*
X018494Y015527D01*
X018720Y015302D01*
X018494Y015142D02*
X018945Y014842D01*
X018068Y017508D02*
X017918Y017508D01*
X017843Y017583D01*
X017683Y017583D02*
X017607Y017508D01*
X017457Y017508D01*
X017382Y017583D01*
X017382Y017883D01*
X017457Y017958D01*
X017607Y017958D01*
X017683Y017883D01*
X017683Y017583D01*
X017683Y017508D02*
X017532Y017658D01*
X017843Y017883D02*
X017918Y017958D01*
X018068Y017958D01*
X018143Y017883D01*
X018143Y017808D01*
X018068Y017733D01*
X018143Y017658D01*
X018143Y017583D01*
X018068Y017508D01*
X018068Y017733D02*
X017993Y017733D01*
X013143Y017808D02*
X013143Y017883D01*
X013068Y017958D01*
X012918Y017958D01*
X012843Y017883D01*
X012683Y017883D02*
X012683Y017583D01*
X012607Y017508D01*
X012457Y017508D01*
X012382Y017583D01*
X012382Y017883D01*
X012457Y017958D01*
X012607Y017958D01*
X012683Y017883D01*
X012532Y017658D02*
X012683Y017508D01*
X012843Y017508D02*
X013143Y017808D01*
X013143Y017508D02*
X012843Y017508D01*
D15*
X012507Y003763D02*
X011207Y003763D01*
X011207Y002463D01*
X012507Y002463D01*
X012507Y003763D01*
X011557Y003113D02*
X011559Y003147D01*
X011565Y003181D01*
X011574Y003214D01*
X011588Y003245D01*
X011605Y003275D01*
X011625Y003303D01*
X011648Y003328D01*
X011674Y003351D01*
X011702Y003370D01*
X011732Y003386D01*
X011764Y003398D01*
X011797Y003407D01*
X011831Y003412D01*
X011866Y003413D01*
X011900Y003410D01*
X011933Y003403D01*
X011966Y003393D01*
X011997Y003378D01*
X012026Y003361D01*
X012053Y003340D01*
X012078Y003316D01*
X012100Y003289D01*
X012118Y003261D01*
X012133Y003230D01*
X012145Y003198D01*
X012153Y003164D01*
X012157Y003130D01*
X012157Y003096D01*
X012153Y003062D01*
X012145Y003028D01*
X012133Y002996D01*
X012118Y002965D01*
X012100Y002937D01*
X012078Y002910D01*
X012053Y002886D01*
X012026Y002865D01*
X011997Y002848D01*
X011966Y002833D01*
X011933Y002823D01*
X011900Y002816D01*
X011866Y002813D01*
X011831Y002814D01*
X011797Y002819D01*
X011764Y002828D01*
X011732Y002840D01*
X011702Y002856D01*
X011674Y002875D01*
X011648Y002898D01*
X011625Y002923D01*
X011605Y002951D01*
X011588Y002981D01*
X011574Y003012D01*
X011565Y003045D01*
X011559Y003079D01*
X011557Y003113D01*
X011457Y003113D02*
X011459Y003153D01*
X011465Y003192D01*
X011475Y003231D01*
X011488Y003268D01*
X011506Y003304D01*
X011527Y003338D01*
X011551Y003370D01*
X011578Y003399D01*
X011608Y003426D01*
X011640Y003449D01*
X011675Y003469D01*
X011711Y003485D01*
X011749Y003498D01*
X011788Y003507D01*
X011827Y003512D01*
X011867Y003513D01*
X011907Y003510D01*
X011946Y003503D01*
X011984Y003492D01*
X012022Y003478D01*
X012057Y003459D01*
X012090Y003438D01*
X012122Y003413D01*
X012150Y003385D01*
X012176Y003355D01*
X012198Y003322D01*
X012217Y003287D01*
X012233Y003250D01*
X012245Y003212D01*
X012253Y003173D01*
X012257Y003133D01*
X012257Y003093D01*
X012253Y003053D01*
X012245Y003014D01*
X012233Y002976D01*
X012217Y002939D01*
X012198Y002904D01*
X012176Y002871D01*
X012150Y002841D01*
X012122Y002813D01*
X012090Y002788D01*
X012057Y002767D01*
X012022Y002748D01*
X011984Y002734D01*
X011946Y002723D01*
X011907Y002716D01*
X011867Y002713D01*
X011827Y002714D01*
X011788Y002719D01*
X011749Y002728D01*
X011711Y002741D01*
X011675Y002757D01*
X011640Y002777D01*
X011608Y002800D01*
X011578Y002827D01*
X011551Y002856D01*
X011527Y002888D01*
X011506Y002922D01*
X011488Y002958D01*
X011475Y002995D01*
X011465Y003034D01*
X011459Y003073D01*
X011457Y003113D01*
D16*
X010532Y005513D03*
X013182Y005513D03*
X013182Y000713D03*
X010532Y000713D03*
D17*
X007562Y006062D02*
X006653Y006062D01*
X006653Y014163D01*
X007562Y014163D01*
X007562Y006062D01*
X015653Y006062D02*
X016562Y006062D01*
X016562Y014163D01*
X015653Y014163D01*
X015653Y006062D01*
D18*
X016807Y013526D02*
X016672Y013660D01*
X017076Y013660D01*
X017076Y013526D02*
X017076Y013795D01*
X008076Y013795D02*
X008076Y013526D01*
X008076Y013660D02*
X007672Y013660D01*
X007807Y013526D01*
D19*
X007587Y018403D03*
X012587Y018403D03*
X017587Y018403D03*
D20*
X019357Y019713D03*
X014357Y019713D03*
X009357Y019713D03*
D21*
X007632Y019463D03*
X011082Y019463D03*
X012632Y019463D03*
X016082Y019463D03*
X017632Y019463D03*
X021082Y019463D03*
D22*
X019857Y019463D03*
X018857Y019463D03*
X014857Y019463D03*
X013857Y019463D03*
X009857Y019463D03*
X008857Y019463D03*
M02*
