G75*
%MOIN*%
%OFA0B0*%
%FSLAX24Y24*%
%IPPOS*%
%LPD*%
%AMOC8*
5,1,8,0,0,1.08239X$1,22.5*
%
%ADD10C,0.0000*%
%ADD11C,0.0040*%
%ADD12C,0.0080*%
D10*
X002107Y000113D02*
X002107Y019609D01*
X021477Y019609D01*
X021477Y000113D01*
X002107Y000113D01*
X011502Y001343D02*
X011504Y001380D01*
X011510Y001417D01*
X011519Y001453D01*
X011533Y001487D01*
X011550Y001520D01*
X011570Y001552D01*
X011593Y001581D01*
X011619Y001607D01*
X011648Y001630D01*
X011679Y001650D01*
X011713Y001667D01*
X011747Y001681D01*
X011783Y001690D01*
X011820Y001696D01*
X011857Y001698D01*
X011894Y001696D01*
X011931Y001690D01*
X011967Y001681D01*
X012001Y001667D01*
X012034Y001650D01*
X012066Y001630D01*
X012095Y001607D01*
X012121Y001581D01*
X012144Y001552D01*
X012164Y001521D01*
X012181Y001487D01*
X012195Y001453D01*
X012204Y001417D01*
X012210Y001380D01*
X012212Y001343D01*
X012210Y001306D01*
X012204Y001269D01*
X012195Y001233D01*
X012181Y001199D01*
X012164Y001166D01*
X012144Y001134D01*
X012121Y001105D01*
X012095Y001079D01*
X012066Y001056D01*
X012035Y001036D01*
X012001Y001019D01*
X011967Y001005D01*
X011931Y000996D01*
X011894Y000990D01*
X011857Y000988D01*
X011820Y000990D01*
X011783Y000996D01*
X011747Y001005D01*
X011713Y001019D01*
X011680Y001036D01*
X011648Y001056D01*
X011619Y001079D01*
X011593Y001105D01*
X011570Y001134D01*
X011550Y001165D01*
X011533Y001199D01*
X011519Y001233D01*
X011510Y001269D01*
X011504Y001306D01*
X011502Y001343D01*
X011502Y004883D02*
X011504Y004920D01*
X011510Y004957D01*
X011519Y004993D01*
X011533Y005027D01*
X011550Y005060D01*
X011570Y005092D01*
X011593Y005121D01*
X011619Y005147D01*
X011648Y005170D01*
X011679Y005190D01*
X011713Y005207D01*
X011747Y005221D01*
X011783Y005230D01*
X011820Y005236D01*
X011857Y005238D01*
X011894Y005236D01*
X011931Y005230D01*
X011967Y005221D01*
X012001Y005207D01*
X012034Y005190D01*
X012066Y005170D01*
X012095Y005147D01*
X012121Y005121D01*
X012144Y005092D01*
X012164Y005061D01*
X012181Y005027D01*
X012195Y004993D01*
X012204Y004957D01*
X012210Y004920D01*
X012212Y004883D01*
X012210Y004846D01*
X012204Y004809D01*
X012195Y004773D01*
X012181Y004739D01*
X012164Y004706D01*
X012144Y004674D01*
X012121Y004645D01*
X012095Y004619D01*
X012066Y004596D01*
X012035Y004576D01*
X012001Y004559D01*
X011967Y004545D01*
X011931Y004536D01*
X011894Y004530D01*
X011857Y004528D01*
X011820Y004530D01*
X011783Y004536D01*
X011747Y004545D01*
X011713Y004559D01*
X011680Y004576D01*
X011648Y004596D01*
X011619Y004619D01*
X011593Y004645D01*
X011570Y004674D01*
X011550Y004705D01*
X011533Y004739D01*
X011519Y004773D01*
X011510Y004809D01*
X011504Y004846D01*
X011502Y004883D01*
D11*
X013877Y006712D02*
X014338Y006712D01*
X014338Y006942D01*
X014261Y007019D01*
X014107Y007019D01*
X014031Y006942D01*
X014031Y006712D01*
X014031Y006865D02*
X013877Y007019D01*
X013877Y007172D02*
X014184Y007479D01*
X014261Y007479D01*
X014338Y007402D01*
X014338Y007249D01*
X014261Y007172D01*
X013877Y007172D02*
X013877Y007479D01*
X007088Y010633D02*
X007088Y010863D01*
X007011Y010939D01*
X006857Y010939D01*
X006781Y010863D01*
X006781Y010633D01*
X006781Y010786D02*
X006627Y010939D01*
X006627Y011093D02*
X006627Y011400D01*
X006627Y011246D02*
X007088Y011246D01*
X006934Y011093D01*
X007088Y010633D02*
X006627Y010633D01*
X005775Y007425D02*
X005621Y007425D01*
X005698Y007425D02*
X005698Y006965D01*
X005775Y006965D02*
X005621Y006965D01*
X005468Y007042D02*
X005391Y006965D01*
X005238Y006965D01*
X005161Y007042D01*
X005007Y006965D02*
X004701Y007272D01*
X004701Y007349D01*
X004777Y007425D01*
X004931Y007425D01*
X005007Y007349D01*
X005161Y007349D02*
X005238Y007425D01*
X005391Y007425D01*
X005468Y007349D01*
X005468Y007042D01*
X005007Y006965D02*
X004701Y006965D01*
X005454Y001854D02*
X005377Y001777D01*
X005377Y001624D01*
X005454Y001547D01*
X005377Y001394D02*
X005531Y001240D01*
X005531Y001317D02*
X005531Y001087D01*
X005377Y001087D02*
X005838Y001087D01*
X005838Y001317D01*
X005761Y001394D01*
X005607Y001394D01*
X005531Y001317D01*
X005761Y001547D02*
X005838Y001624D01*
X005838Y001777D01*
X005761Y001854D01*
X005684Y001854D01*
X005607Y001777D01*
X005531Y001854D01*
X005454Y001854D01*
X005607Y001777D02*
X005607Y001701D01*
X007377Y018133D02*
X007838Y018133D01*
X007838Y018363D01*
X007761Y018439D01*
X007607Y018439D01*
X007531Y018363D01*
X007531Y018133D01*
X007531Y018286D02*
X007377Y018439D01*
X007454Y018593D02*
X007377Y018670D01*
X007377Y018823D01*
X007454Y018900D01*
X007531Y018900D01*
X007607Y018823D01*
X007607Y018593D01*
X007454Y018593D01*
X007607Y018593D02*
X007761Y018746D01*
X007838Y018900D01*
X012377Y018823D02*
X012377Y018670D01*
X012454Y018593D01*
X012607Y018593D02*
X012684Y018746D01*
X012684Y018823D01*
X012607Y018900D01*
X012454Y018900D01*
X012377Y018823D01*
X012607Y018593D02*
X012838Y018593D01*
X012838Y018900D01*
X012761Y018439D02*
X012607Y018439D01*
X012531Y018363D01*
X012531Y018133D01*
X012531Y018286D02*
X012377Y018439D01*
X012377Y018133D02*
X012838Y018133D01*
X012838Y018363D01*
X012761Y018439D01*
X017377Y018439D02*
X017531Y018286D01*
X017531Y018363D02*
X017531Y018133D01*
X017377Y018133D02*
X017838Y018133D01*
X017838Y018363D01*
X017761Y018439D01*
X017607Y018439D01*
X017531Y018363D01*
X017607Y018593D02*
X017607Y018900D01*
X017377Y018823D02*
X017838Y018823D01*
X017607Y018593D01*
D12*
X005585Y005438D02*
X003005Y005438D01*
X003005Y004038D01*
X005585Y004038D01*
X005585Y005438D01*
M02*
