%
M48
M72
T01C0.0197
T02C0.0236
T03C0.0320
T04C0.0360
T05C0.0394
T06C0.0400
T07C0.0470
T08C0.0710
T09C0.1181
%
T01
X2982Y4363
X2982Y4738
X2982Y5113
X2982Y5488
X2982Y5863
X2982Y6238
X2982Y6613
X3357Y6613
X3732Y6613
X4107Y6613
X4482Y6613
X4857Y6613
X5232Y6613
X5607Y6613
X5607Y6238
X5232Y6238
X5232Y5863
X5607Y5863
X5607Y5488
X5607Y5113
X5232Y5113
X5232Y5488
X4857Y5488
X4857Y5113
X4482Y5113
X4482Y5488
X4107Y5488
X4107Y5113
X3732Y5113
X3732Y5488
X3357Y5488
X3357Y5113
X3357Y4738
X3732Y4738
X4107Y4738
X4482Y4738
X4857Y4738
X5232Y4738
X5607Y4738
X5607Y4363
X5232Y4363
X4857Y4363
X4482Y4363
X4107Y4363
X3732Y4363
X3357Y4363
X3357Y5863
X3357Y6238
T02
X5920Y3550
X8920Y5175
X12732Y12363
X13482Y12613
X16232Y15238
X15982Y16113
X17482Y16363
X18732Y16363
X7857Y14363
T03
X7357Y3113
X7357Y4113
X5357Y2113
X4357Y2113
X3357Y2113
X3357Y1113
X4357Y1113
X5357Y1113
T04
X10857Y2113
X10857Y3113
T05
X7107Y6613
X7107Y7613
X7107Y8613
X7107Y9613
X7107Y10613
X7107Y11613
X7107Y12613
X7107Y13613
X16107Y13613
X16107Y12613
X16107Y11613
X16107Y10613
X16107Y9613
X16107Y8613
X16107Y7613
X16107Y6613
T06
X17357Y10613
X17357Y11613
X17357Y12613
X19857Y6863
X19857Y5863
X19857Y4863
X19857Y3863
X18107Y3863
X18107Y2863
X18107Y1863
X18107Y863
X18357Y18863
X19357Y18863
X20357Y18863
X15357Y18863
X14357Y18863
X13357Y18863
X10357Y18863
X9357Y18863
X8357Y18863
T07
X3857Y13613
X3857Y11613
X3857Y9613
X3857Y7613
X9397Y4093
X9397Y2133
X14317Y2133
X14317Y4093
X19857Y9113
X19857Y11113
X19857Y13113
X19857Y15113
T08
X11857Y4883
X11857Y1343
T09
X4334Y15801
X3192Y17652
X5515Y17652
M30
